<svg id="Layer_1" data-name="Layer 1" xmlns="http://www.w3.org/2000/svg" viewBox="0 0 1855.27842 324.99983">
  <g>
    <g>
      <g>
        <path d="M16.89787,436l44.23386.58971,22.11692.29474,11.05845.14748,2.76462.03682,3.2287.11023c.54286.02339,1.08578.03573,1.62812.07038l1.626.1386c1.08295.104,2.1686.16763,3.24722.31337a87.60865,87.60865,0,0,1,25.086,6.85407,92.12616,92.12616,0,0,1,11.47158,6.11839,90.15125,90.15125,0,0,1,10.41859,7.72032A87.98747,87.98747,0,0,1,170.643,477.90769a83.91146,83.91146,0,0,1,6.09614,11.38027l.64735,1.47936c.21834.49182.43106.9858.6161,1.4917l1.149,3.01718c.36444,1.012.67966,2.04177,1.01749,3.06266.16206.51283.3397,1.02067.48692,1.53761l.42582,1.556.42151,1.55624c.14483.5178.27848,1.038.38649,1.56468l.68788,3.14863c.21239,1.05229.368,2.11541.55041,3.17268l.25686,1.5885.18781,1.59739c.11368,1.06593.26749,2.12818.34027,3.19628l.20717,3.20451c.042.53383.05285,1.0681.05771,1.60258l.02342,1.60258.0194,1.60215.00322.39393-.00461.34564-.00921.69127-.29479,22.11691-.58958,44.23382-.58958,44.23381-.1474,11.05846-.0737,5.52912-.01842,1.38233-.00461.34564-.00291.17975-.00922.2484-.04239.993a35.06608,35.06608,0,0,1-.40775,3.98176,31.70209,31.70209,0,0,1-6.6545,14.73876A32.46482,32.46482,0,0,1,146.89554,687.465a31.37391,31.37391,0,0,1-7.85381-1.922c-.62392-.25966-1.26321-.48836-1.86556-.79155q-.90885-.44439-1.80775-.907-.86868-.50773-1.72694-1.033c-.57836-.34195-1.10076-.75126-1.648-1.13176-.26876-.19556-.54247-.38679-.8041-.58906l-.76068-.63064c-.49618-.42923-1.02719-.83486-1.47938-1.29766l-1.38872-1.3689c-.42624-.43551-.77816-.86-1.15776-1.29419l-1.11689-1.29918c-.377-.42966-.70052-.89723-1.05105-1.34551l-1.02669-1.36176c-.32678-.46367-.63425-.93968-.95-1.41006a52.16515,52.16515,0,0,1-5.94451-12.11832,49.94491,49.94491,0,0,1-2.59481-13.278,46.78284,46.78284,0,0,1,1.22868-13.67911l.42471-1.68639c.16745-.55938.35692-1.11639.53806-1.67339.1874-.55506.36142-1.1164.56642-1.66279l.66676-1.61536c.23362-.53231.43054-1.08477.70023-1.59673l.78147-1.55147c.49921-1.048,1.12611-2.01471,1.71307-3.00636a45.51,45.51,0,0,1,8.89773-10.40919,43.93654,43.93654,0,0,1,11.71167-7.25579l1.62142-.65273c.54013-.21678,1.11063-.37162,1.66561-.55657l1.67791-.52344,1.72171-.40367c.57663-.12453,1.14538-.27439,1.72917-.36968l1.759-.2549a33.38006,33.38006,0,0,1,3.50378-.31466,42.91031,42.91031,0,0,1,13.56677,1.61968A51.52274,51.52274,0,0,1,180.263,605.213a62.83956,62.83956,0,0,1,10.29994,7.4782c.77619.70882,1.55,1.43344,2.29776,2.15915.71756.73957,1.46922,1.4577,2.15324,2.21828.69642.753,1.39482,1.50491,2.04977,2.28064l.99373,1.15732.9572,1.17465a109.24319,109.24319,0,0,1,6.92855,9.65706c2.10988,3.27035,4.05975,6.56495,5.92417,9.83119,1.864,3.27164,3.64634,6.48893,5.44387,9.68781q2.69516,4.80255,5.41782,9.55571c3.63825,6.33279,7.34513,12.58459,11.22036,18.6876a225.86489,225.86489,0,0,0,25.93769,34.15489,140.82873,140.82873,0,0,0,15.58573,14.29632,121.60557,121.60557,0,0,0,17.58634,11.5494,100.26847,100.26847,0,0,0,19.30043,7.95465,83.31916,83.31916,0,0,0,20.43636,3.33618l-.198,10.60778a94.2202,94.2202,0,0,1-23.20452-3.14452,111.72857,111.72857,0,0,1-21.752-8.28382,143.29419,143.29419,0,0,1-37.0662-27.29043,239.239,239.239,0,0,1-28.46445-35.435c-4.19712-6.23642-8.18186-12.56878-12.0598-18.9202q-2.90406-4.76486-5.74769-9.53578l-5.64532-9.44808a130.26682,130.26682,0,0,0-11.90286-17.11058l-.81423-.9479-.8335-.91737c-.5495-.62-1.12427-1.20107-1.69461-1.78688-.56238-.59793-1.16586-1.1322-1.74372-1.70328-.59069-.54033-1.178-1.05987-1.77482-1.57963a46.51058,46.51058,0,0,0-7.71012-5.29024,34.873,34.873,0,0,0-8.32288-3.2801,25.94555,25.94555,0,0,0-8.32093-.78114,16.91422,16.91422,0,0,0-1.99349.2406l-.974.162c-.32431.05847-.64307.1674-.96526.24428l-.96555.24494-.94927.33741c-.31479.118-.63931.19815-.94821.34l-.92985.41234a26.42867,26.42867,0,0,0-6.88209,4.54332,27.68759,27.68759,0,0,0-5.23514,6.49175c-.32561.609-.70912,1.19-.97077,1.82413l-.44.92884c-.16085.30428-.24727.63389-.37782.94747l-.36854.94813c-.109.31921-.18944.64514-.28919.96544l-.28949.96393-.21389,1.00356a29.89489,29.89489,0,0,0,1.37323,16.59667,33.16439,33.16439,0,0,0,3.981,7.57133c.20674.28825.40295.58494.614.86907l.66626.82382c.22645.26984.42619.5648.67031.81666l.71072.77509c.23328.25381.47256.53773.70147.75083q.3073.26963.60176.54986a6.82944,6.82944,0,0,0,.61664.50264l.306.24862c.10552.07537.21667.1386.323.2105.21893.13059.41493.30666.64187.41494q.33349.17607.65543.36946c.229.0968.45467.19729.67693.30514.21961.11521.4634.16589.689.26183a11.71975,11.71975,0,0,0,2.87625.60465,12.46012,12.46012,0,0,0,5.94516-1.075,12.11933,12.11933,0,0,0,4.69137-3.69547c.13407-.2014.296-.38353.42249-.58775q.18186-.31121.38086-.609c.10619-.21419.21167-.42729.32718-.63519.119-.20617.18231-.43962.28609-.65272a12.17869,12.17869,0,0,0,.747-2.78784,14.688,14.688,0,0,0,.09374-1.52029l.01031-.3883.004-.097-.00169-.16589-.00461-.34564-.01842-1.38233-.0737-5.52912-.1474-11.05846-.58958-44.23381-.58958-44.23382L160.04,526.69955l-.00921-.69127-.00461-.34564-.01224-.29669-.05048-1.16166-.04647-1.16122c-.01121-.38722-.02706-.77379-.07261-1.15819l-.21207-2.3088c-.06892-.76924-.213-1.52873-.31138-2.29342l-.16069-1.1452-.221-1.13415c-.15557-.75429-.27878-1.51465-.4529-2.264l-.55558-2.23906c-.08311-.37552-.19041-.74433-.30739-1.11076l-.33369-1.103-.3294-1.10361c-.11367-.36665-.2563-.724-.38191-1.08651-.26495-.72051-.50146-1.45077-.78169-2.165l-.87919-2.12666c-.13722-.3582-.30084-.70514-.46867-1.05013l-.49153-1.03994a58.75728,58.75728,0,0,0-4.55686-7.97457,62.34776,62.34776,0,0,0-12.32613-13.50131,64.08261,64.08261,0,0,0-7.48119-5.23351,65.83712,65.83712,0,0,0-8.14075-4.06016,60.76743,60.76743,0,0,0-17.55478-4.2817c-.74984-.08576-1.50869-.09551-2.26144-.1516l-1.13062-.07125c-.37765-.01364-.75688-.00649-1.135-.01191l-2.29887-.021-2.76462.03681-11.05845.14748-22.11692.29475-44.23386.5897Z" transform="translate(-16.89787 -436)" style="fill: #6e2815"/>
        <path d="M648.49612,465.47643l-44.23384-.5897-22.11694-.29475-11.05845-.14748-2.76461-.03681-2.29887.021c-.37812.00542-.75735-.00173-1.135.01191l-1.13063.07125c-.75272.05609-1.51159.06584-2.26142.1516a60.96839,60.96839,0,0,0-25.69554,8.34186,64.082,64.082,0,0,0-7.48121,5.23351,62.34868,62.34868,0,0,0-12.32611,13.50131,58.75722,58.75722,0,0,0-4.55685,7.97457l-.49153,1.03994c-.16783.345-.33148.69193-.46867,1.05013l-.8792,2.12666c-.28023.71423-.51675,1.44449-.78169,2.165-.12561.36253-.26824.71986-.38191,1.08651l-.3294,1.10361-.3337,1.103c-.117.36643-.22428.73524-.30738,1.11076l-.55557,2.23906c-.17412.74932-.29735,1.50968-.45292,2.264l-.221,1.13415-.16069,1.1452c-.09843.76469-.24247,1.52418-.3114,2.29342l-.21207,2.3088c-.04553.3844-.06139.771-.0726,1.15819l-.04648,1.16122L505.38,525.366l-.01223.29669-.00461.34564-.0092.69127-.2948,22.11691-.58957,44.23382L503.88,637.28409l-.1474,11.05846-.07371,5.52912-.01841,1.38233-.00463.34564-.00168.16589.00395.097.01032.3883a14.68525,14.68525,0,0,0,.09372,1.52029,12.17971,12.17971,0,0,0,.747,2.78784c.10378.2131.1671.44655.2861.65272.11551.2079.221.421.32718.63519q.19941.2982.38086.609c.1265.20422.28841.38635.42249.58775a12.11945,12.11945,0,0,0,4.69136,3.69547,12.46018,12.46018,0,0,0,5.94517,1.075,11.71984,11.71984,0,0,0,2.87625-.60465c.22561-.09594.46938-.14662.689-.26183.22225-.10785.44794-.20834.67693-.30514q.3225-.19361.65543-.36946c.22694-.10828.42293-.28435.64188-.41494.10636-.0719.21751-.13513.323-.2105l.306-.24862a6.82944,6.82944,0,0,0,.61664-.50264q.2948-.28035.60175-.54986c.22891-.2131.46819-.497.70148-.75083l.71072-.77509c.24412-.25186.44387-.54682.67029-.81666l.66629-.82382c.211-.28413.40725-.58082.614-.86907a33.16364,33.16364,0,0,0,3.981-7.57133,29.8949,29.8949,0,0,0,1.37324-16.59667l-.21391-1.00356-.28947-.96393c-.09975-.3203-.18023-.64623-.28919-.96544l-.36854-.94813c-.13056-.31358-.217-.64319-.37783-.94747l-.44-.92884c-.26164-.63411-.64515-1.21515-.97078-1.82413a27.68729,27.68729,0,0,0-5.23513-6.49175,26.42862,26.42862,0,0,0-6.88208-4.54332l-.92985-.41234c-.3089-.14185-.63342-.222-.94823-.34l-.94926-.33741-.96555-.24494c-.3222-.07688-.64095-.18581-.96526-.24428l-.974-.162a16.91481,16.91481,0,0,0-1.99351-.2406,25.94569,25.94569,0,0,0-8.32094.78114,34.87331,34.87331,0,0,0-8.32286,3.2801,46.51008,46.51008,0,0,0-7.71011,5.29024c-.59686.51976-1.18415,1.0393-1.77483,1.57963-.57785.57108-1.18134,1.10535-1.74373,1.70328-.57032.58581-1.14511,1.16685-1.69459,1.78688l-.83351.91737-.81423.9479A130.26686,130.26686,0,0,0,466.73592,648.942l-5.6453,9.44808q-2.84538,4.76778-5.74772,9.53578c-3.87791,6.35142-7.86266,12.68378-12.05976,18.9202a239.24043,239.24043,0,0,1-28.46447,35.435,143.29419,143.29419,0,0,1-37.0662,27.29043,111.72866,111.72866,0,0,1-21.752,8.28382,94.21994,94.21994,0,0,1-23.20452,3.14452l-.198-10.60778a83.31924,83.31924,0,0,0,20.43637-3.33618,100.26908,100.26908,0,0,0,19.30044-7.95465,121.60548,121.60548,0,0,0,17.58633-11.5494,140.82784,140.82784,0,0,0,15.58573-14.29632,225.86483,225.86483,0,0,0,25.93768-34.15489c3.87524-6.103,7.58213-12.35481,11.22036-18.6876q2.72588-4.75317,5.41784-9.55571c1.79751-3.19888,3.57989-6.41617,5.44387-9.68781,1.86441-3.26624,3.81428-6.56084,5.92416-9.83119a109.24292,109.24292,0,0,1,6.92853-9.65706l.95722-1.17465.99374-1.15732c.65494-.77573,1.35334-1.52765,2.04976-2.28064.684-.76058,1.43569-1.47871,2.15325-2.21828.7478-.72571,1.52155-1.45033,2.29775-2.15915A62.84042,62.84042,0,0,1,485.131,605.213a51.52264,51.52264,0,0,1,12.06989-5.11917,42.91014,42.91014,0,0,1,13.56676-1.61968,33.37958,33.37958,0,0,1,3.50378.31466l1.759.2549c.58378.09529,1.15254.24515,1.72917.36968l1.72171.40367,1.67791.52344c.555.18495,1.12547.33979,1.66561.55657l1.62142.65273a43.93623,43.93623,0,0,1,11.71167,7.25579,45.51,45.51,0,0,1,8.89773,10.40919c.587.99165,1.21385,1.9584,1.71306,3.00636l.78147,1.55147c.26971.512.46662,1.06442.70024,1.59673l.66675,1.61536c.205.54639.379,1.10773.56643,1.66279.18112.557.37062,1.114.538,1.67339l.42471,1.68639a46.78352,46.78352,0,0,1,1.22868,13.67911,49.9449,49.9449,0,0,1-2.5948,13.278,52.16515,52.16515,0,0,1-5.94451,12.11832c-.3157.47038-.6232.94639-.95,1.41006l-1.02668,1.36176c-.35053.44828-.67411.91585-1.051,1.34551l-1.11691,1.29918c-.37958.43421-.7315.85868-1.15775,1.29419l-1.38873,1.3689c-.45218.4628-.9832.86843-1.47938,1.29766l-.76068.63064c-.26161.20227-.53532.3935-.80408.58906-.54721.3805-1.06961.78981-1.648,1.13176q-.85772.525-1.72694,1.033-.89739.46388-1.80775.907c-.60235.30319-1.24165.53189-1.86557.79155a31.37391,31.37391,0,0,1-7.85381,1.922,32.46485,32.46485,0,0,1-28.47972-11.72374,31.70184,31.70184,0,0,1-6.65447-14.73876,35.057,35.057,0,0,1-.40777-3.98176l-.04239-.993-.0092-.2484-.00293-.17975-.0046-.34564-.01844-1.38233-.07368-5.52912-.1474-11.05846-.5896-44.23381-.58957-44.23382-.2948-22.11691-.0092-.69127-.00461-.34564.00323-.39393.01941-1.60215.02341-1.60258c.00485-.53448.0157-1.06875.05769-1.60258l.20717-3.20451c.07279-1.0681.22661-2.13035.34028-3.19628l.18781-1.59739.25685-1.5885c.1824-1.05727.338-2.12039.55043-3.17268l.68786-3.14863c.108-.52669.24166-1.04688.38649-1.56468l.42152-1.55624.42582-1.556c.14723-.51694.32487-1.02478.48691-1.53761.33785-1.02089.65306-2.05065,1.01751-3.06266l1.149-3.01718c.185-.5059.39774-.99988.6161-1.4917l.64734-1.47936a83.91257,83.91257,0,0,1,6.09614-11.38027,87.98769,87.98769,0,0,1,16.86507-19.51358,90.15383,90.15383,0,0,1,10.41859-7.72032,92.12712,92.12712,0,0,1,11.4716-6.11839,87.60853,87.60853,0,0,1,25.08593-6.85407c1.07863-.14574,2.16427-.20941,3.24723-.31337l1.626-.1386c.54233-.03465,1.08526-.047,1.6281-.07038l3.22872-.11023,2.76461-.03682,11.05845-.14748,22.11694-.29474L648.49612,436Z" transform="translate(-16.89787 -436)" style="fill: #6e2815"/>
      </g>
      <path d="M373.16518,600.79735l-1.27828-.04847a39.45864,39.45864,0,0,0-.44438-3.94407l1.223-.33545a.92986.92986,0,0,0-.35315-1.82039l-1.25547.14551a38.93166,38.93166,0,0,0-1.04587-3.83308l1.14713-.51349a.92988.92988,0,0,0-.62685-1.74518l-1.20966.333a39.08282,39.08282,0,0,0-1.62356-3.62858l1.051-.67994a.92981.92981,0,0,0-.88581-1.629l-1.141.512a39.28085,39.28085,0,0,0-2.15957-3.33885l.93241-.83007a.92989.92989,0,0,0-1.12412-1.47481l-1.04567.67768a39.49977,39.49977,0,0,0-2.6423-2.97381l.78927-.9564a.92987.92987,0,0,0-1.33609-1.28586l-.9216.822a39.39243,39.39243,0,0,0-3.067-2.53965l.62744-1.05433a.92977.92977,0,0,0-1.51659-1.06671l-.78.94647a39.2767,39.2767,0,0,0-3.42271-2.03893l.45775-1.134a.92992.92992,0,0,0-1.66191-.82279l-.6237,1.05048a39.01615,39.01615,0,0,0-3.69544-1.49162l.27843-1.18744a.93.93,0,0,0-1.76809-.5596l-.45539,1.13179a39.00562,39.00562,0,0,0-3.88066-.90547l.094-1.2189a.92986.92986,0,0,0-1.83258-.28315l-.27842,1.19275a39.54111,39.54111,0,0,0-3.9719-.301l-.09359-1.22519a.9299.9299,0,0,0-1.85441,0l-.0934,1.22519a39.53644,39.53644,0,0,0-3.97189.301l-.27863-1.19275a.92985.92985,0,0,0-1.83257.28315l.09418,1.2189a38.98085,38.98085,0,0,0-3.88066.90547l-.45559-1.13179a.92986.92986,0,0,0-1.76788.5596l.27842,1.18744a38.97086,38.97086,0,0,0-3.69543,1.49153l-.62391-1.05039a.92981.92981,0,0,0-1.6617.82279l.45755,1.134a39.25171,39.25171,0,0,0-3.42271,2.03893l-.77983-.94647a.92986.92986,0,0,0-1.51679,1.06671l.62744,1.05433a39.42984,39.42984,0,0,0-3.067,2.53965l-.9216-.822a.92987.92987,0,0,0-1.33609,1.28586l.78946.9564a39.50446,39.50446,0,0,0-2.64249,2.97381l-1.04547-.67768a.93.93,0,0,0-1.12433,1.47481l.93242.83016a39.32562,39.32562,0,0,0-2.15938,3.33876l-1.141-.512a.9298.9298,0,0,0-.88581,1.629l1.05078.67994a39.03131,39.03131,0,0,0-1.62337,3.62858l-1.20965-.333a.92987.92987,0,0,0-.62686,1.74518l1.14694.51349a38.98443,38.98443,0,0,0-1.04587,3.83308l-1.25547-.14551a.92986.92986,0,0,0-.35315,1.82039l1.22323.33545a39.34136,39.34136,0,0,0-.44438,3.94407l-1.27848.04847a.92984.92984,0,0,0-.071,1.85293l1.27494.14658c-.00138.14059-.01062.27932-.01062.4202,0,1.19481.06233,2.37449.16674,3.54207l-1.26413.2446a.92992.92992,0,0,0,.21256,1.84221l1.28615-.04994a39.1292,39.1292,0,0,0,.75564,3.89207l-1.21221.43484a.92986.92986,0,0,0,.49137,1.788l1.26393-.24578a38.97594,38.97594,0,0,0,1.34317,3.72984l-1.13455.61624a.92987.92987,0,0,0,.75859,1.69208l1.21674-.43759a39.12825,39.12825,0,0,0,1.903,3.47423l-1.03839.79084a.92983.92983,0,0,0,1.00791,1.55641l1.15284-.62754a39.36172,39.36172,0,0,0,2.40575,3.14006l-.91747.95237a.9299.9299,0,0,0,1.23384,1.38436l1.05472-.8049A39.49923,39.49923,0,0,0,306.959,632.869l-.76646,1.08854a.92988.92988,0,0,0,1.43067,1.17977l.92317-.96014a39.36726,39.36726,0,0,0,3.23159,2.274l-.59126,1.19265a.92985.92985,0,0,0,1.59387.94765l.76429-1.08774a39.14631,39.14631,0,0,0,3.54109,1.75559l-.40093,1.26521a.92979.92979,0,0,0,1.71971.69331l.58773-1.18813a38.923,38.923,0,0,0,3.76917,1.19167l-.20312,1.31092a.92991.92991,0,0,0,1.80564.42256l.39955-1.26491a39.20161,39.20161,0,0,0,3.90662.59794l-.00059,1.332a.92986.92986,0,0,0,1.84889.142l.20332-1.31977q.98157.04866,1.97513.04994.99366,0,1.97514-.04994l.20311,1.31977a.92987.92987,0,0,0,1.8489-.142l-.00059-1.332a39.20161,39.20161,0,0,0,3.90662-.59794l.39974,1.26491a.92981.92981,0,0,0,1.80545-.42256l-.20293-1.31092a38.96323,38.96323,0,0,0,3.769-1.19157l.58772,1.188a.92989.92989,0,0,0,1.71991-.69331l-.40112-1.26521a39.094,39.094,0,0,0,3.54108-1.75559l.7643,1.08774a.92985.92985,0,0,0,1.59387-.94765l-.59107-1.19265a39.39666,39.39666,0,0,0,3.2314-2.274l.92317.96014a.92988.92988,0,0,0,1.43067-1.17977l-.76626-1.08854a39.49634,39.49634,0,0,0,2.85052-2.73746l1.05491.8049a.92983.92983,0,0,0,1.23365-1.38436l-.91747-.95237a39.36645,39.36645,0,0,0,2.40595-3.14006l1.15263.62754a.92983.92983,0,0,0,1.00792-1.55641l-1.0382-.79084a39.17442,39.17442,0,0,0,1.903-3.47423l1.21674.43759a.92983.92983,0,0,0,.7584-1.69208l-1.13435-.61624a38.98025,38.98025,0,0,0,1.343-3.72984l1.26412.24578a.92986.92986,0,0,0,.49138-1.788l-1.21241-.43484a39.07488,39.07488,0,0,0,.75564-3.89207l1.28615.04994a.92993.92993,0,0,0,.21275-1.84221l-1.26432-.2446c.10461-1.16758.16674-2.34726.16674-3.54207,0-.14088-.009-.27961-.01062-.4202l1.27494-.14658A.92984.92984,0,0,0,373.16518,600.79735Z" transform="translate(-16.89787 -436)" style="fill: #6e2814"/>
    </g>
    <g>
      <g>
        <path d="M1199.8914,649.69121h-15.348v10.92h16.85611l-.52755,3.50575H1180.5305V633.25674h20.09636v3.50576h-16.08341v9.42295h15.348Z" transform="translate(-16.89787 -436)" style="fill: #6e2814"/>
        <path d="M1214.5745,655.52687c.83724,3.70088,3.36716,5.70064,7.83965,5.70064,4.81381,0,6.72-2.25758,6.72-5.17308,0-3.09569-1.52072-4.82929-7.70754-6.3263-7.27139-1.76674-9.7961-4.25712-9.7961-8.59557,0-4.58338,3.38015-8.31934,10.26908-8.31934,7.34891,0,10.37346,4.24792,10.78839,8.30082h-4.16454c-.55267-2.7455-2.27047-4.99929-6.77242-4.99929-3.7574,0-5.86717,1.692-5.86717,4.63341,0,2.897,1.742,4.03915,7.14967,5.34861,8.80077,2.14194,10.354,5.56745,10.354,9.529,0,4.977-3.68767,8.87743-11.23452,8.87743-7.76212,0-11.10372-4.24153-11.743-8.97629Z" transform="translate(-16.89787 -436)" style="fill: #6e2814"/>
        <path d="M1250.99986,636.7625h-9.968v-3.50576h24.069v3.50576h-9.981v27.35442h-4.11993Z" transform="translate(-16.89787 -436)" style="fill: #6e2814"/>
        <path d="M1274.822,633.25674h11.02878c8.673,0,14.541,5.91223,14.541,15.11689,0,9.12886-5.71905,15.74329-14.67964,15.74329H1274.822Zm4.09178,27.38583h6.47485c7.26316,0,10.71823-5.2007,10.71823-12.18308,0-6.0924-3.15015-11.72839-10.70263-11.72839h-6.49045Z" transform="translate(-16.89787 -436)" style="fill: #6e2814"/>
        <path d="M1326.59184,664.11692v-.243c0-4.21836,2.77463-8.58549,8.7895-13.14115,4.67954-3.57062,5.95034-4.70542,5.95034-7.93137,0-2.92655-1.5545-5.14255-5.06155-5.14255-3.53651,0-5.19713,1.84448-5.80957,5.41152h-3.81718c.51369-4.9419,3.66861-8.67147,9.62675-8.67147,6.54329,0,9.08749,4.20915,9.08749,8.30093,0,4.41424-1.87588,6.14222-7.27181,10.31066-4.01945,3.11139-6.16517,5.45029-6.89543,7.67647H1346.508l-.55658,3.43Z" transform="translate(-16.89787 -436)" style="fill: #6e2814"/>
        <path d="M1376.06046,649.318c0,7.23175-2.06,15.33117-10.2119,15.33117-7.97738,0-10.18331-7.57826-10.18331-15.12511,0-7.48676,2.4017-15.12511,10.31628-15.12511C1373.81512,634.39891,1376.06046,641.84885,1376.06046,649.318Zm-16.27745.20335c0,5.55175.962,11.82076,6.09717,11.82076,5.17374,0,6.07551-5.95845,6.07551-12.00841,0-5.62008-.96458-11.62759-5.94557-11.62759C1360.90482,637.70607,1359.783,643.10828,1359.783,649.52131Z" transform="translate(-16.89787 -436)" style="fill: #6e2814"/>
        <path d="M1406.3527,649.318c0,7.23175-2.06,15.33117-10.2119,15.33117-7.97739,0-10.18332-7.57826-10.18332-15.12511,0-7.48676,2.40171-15.12511,10.31629-15.12511C1404.10735,634.39891,1406.3527,641.84885,1406.3527,649.318Zm-16.27745.20335c0,5.55175.962,11.82076,6.09716,11.82076,5.17374,0,6.07552-5.95845,6.07552-12.00841,0-5.62008-.96458-11.62759-5.94558-11.62759C1391.19705,637.70607,1390.07525,643.10828,1390.07525,649.52131Z" transform="translate(-16.89787 -436)" style="fill: #6e2814"/>
        <path d="M1431.62712,641.2887a4.59316,4.59316,0,0,0-4.92078-3.70553c-4.913,0-6.51644,4.60558-6.66544,10.77118a7.95752,7.95752,0,0,1,7.40565-4.0568c5.65062,0,8.95236,4.1038,8.95236,9.72669,0,5.74124-3.38014,10.62489-9.85153,10.62489-8.04452,0-10.399-6.52012-10.399-14.74158,0-8.04029,2.61957-15.50864,10.7256-15.50864,5.94427,0,8.24722,3.87738,8.62794,6.88979Zm.76145,13.02573c0-3.263-1.26214-6.75693-5.74764-6.75693-3.60667,0-6.1591,2.31021-6.1591,6.72,0,2.40809,1.22359,7.09326,6.03176,7.09326C1430.72708,661.37077,1432.38857,657.96821,1432.38857,654.31443Z" transform="translate(-16.89787 -436)" style="fill: #6e2814"/>
      </g>
      <g>
        <path d="M804.69231,584.15636H785.17093l-.19317-.09658q3.189-1.05771,2.65746-3.41567a13.80578,13.80578,0,0,0-2.94745-5.33962l-9.954-12.50576H760.721v12.50576a11.11312,11.11312,0,0,0,1.30459,5.3877q1.30458,2.40582,5.26685,3.36759v.09658H749.12392v-.09658q3.96152-.9648,5.26707-3.38232a11.20231,11.20231,0,0,0,1.30459-5.412v-49.3833a10.93452,10.93452,0,0,0-1.30459-5.36388q-1.30491-2.36684-5.26707-3.43039v-.097h27.63931a35.42276,35.42276,0,0,1,11.162,1.64763,23.99633,23.99633,0,0,1,8.35941,4.5994,19.99381,19.99381,0,0,1,5.21856,7.16657,23.4153,23.4153,0,0,1,1.83626,9.44223q0,9.59015-5.89512,15.642-5.89564,6.0519-16.52563,7.11676l10.05078,12.69893a27.99181,27.99181,0,0,0,5.50854,5.33962,20.8114,20.8114,0,0,0,8.02113,3.41567Zm-28.41223-23.38684a28.98672,28.98672,0,0,0,9.90567-1.4982,17.4535,17.4535,0,0,0,6.71655-4.204,16.313,16.313,0,0,0,3.81717-6.57144,31.22438,31.22438,0,0,0,0-17.20219,16.33631,16.33631,0,0,0-3.81717-6.57144,17.49446,17.49446,0,0,0-6.71655-4.204,29.0298,29.0298,0,0,0-9.90567-1.49776H760.721v41.749Z" transform="translate(-16.89787 -436)" style="fill: #6e2814"/>
        <path d="M829.771,574.49237a15.284,15.284,0,0,0,3.23743,5.50855,12.74926,12.74926,0,0,0,4.63882,3.14062,14.79816,14.79816,0,0,0,5.41174,1.01482,15.9606,15.9606,0,0,0,5.84682-1.11141,15.09971,15.09971,0,0,0,5.122-3.33423A16.73735,16.73735,0,0,0,857.7,574.1541a19.7075,19.7075,0,0,0,1.40139-7.68286v-40.589a10.93474,10.93474,0,0,0-1.3048-5.36388q-1.3046-2.36684-5.26686-3.43039v-.097H867.7023v.097q-3.96378,1.06421-5.26685,3.43039a10.93452,10.93452,0,0,0-1.30459,5.36388v40.589a19.89834,19.89834,0,0,1-1.59457,8.26282,16.824,16.824,0,0,1-4.25225,5.84638,17.3022,17.3022,0,0,1-6.04,3.43082,21.73544,21.73544,0,0,1-13.72285,0,18.09978,18.09978,0,0,1-6.04021-3.3338,16.8033,16.8033,0,0,1-4.30033-5.55705,17.15482,17.15482,0,0,1-1.64308-7.68286V525.88221a10.93452,10.93452,0,0,0-1.30459-5.36388q-1.30491-2.36684-5.26707-3.43039v-.097h18.1685v.097q-3.9638,1.06421-5.26686,3.43039a10.93452,10.93452,0,0,0-1.30459,5.36388v40.589A23.85238,23.85238,0,0,0,829.771,574.49237Z" transform="translate(-16.89787 -436)" style="fill: #6e2814"/>
        <path d="M908.38792,516.99092a35.4232,35.4232,0,0,1,11.16219,1.64763,24.0003,24.0003,0,0,1,8.35941,4.5994,19.99325,19.99325,0,0,1,5.21834,7.16657,25.19346,25.19346,0,0,1,0,18.884,20.45128,20.45128,0,0,1-5.21834,7.21507,23.55476,23.55476,0,0,1-8.35941,4.64922,35.42468,35.42468,0,0,1-11.16219,1.64589H892.34566v12.50576a11.11312,11.11312,0,0,0,1.30459,5.3877q1.30458,2.40582,5.26685,3.36759v.09658H880.74861v-.09658q3.96183-.9648,5.26707-3.38232a11.20231,11.20231,0,0,0,1.30459-5.412v-49.3833a10.93452,10.93452,0,0,0-1.30459-5.36388q-1.30491-2.36684-5.26707-3.43039v-.097Zm-.48315,43.7786a28.98672,28.98672,0,0,0,9.90567-1.4982,17.4535,17.4535,0,0,0,6.71655-4.204,16.3135,16.3135,0,0,0,3.81739-6.57144,31.22438,31.22438,0,0,0,0-17.20219,16.33683,16.33683,0,0,0-3.81739-6.57144,17.49446,17.49446,0,0,0-6.71655-4.204,29.0298,29.0298,0,0,0-9.90567-1.49776H892.34566v41.749Z" transform="translate(-16.89787 -436)" style="fill: #6e2814"/>
        <path d="M993.1419,565.6981l-2.12623,19.13481a2.85494,2.85494,0,0,0-1.30459-.53145,7.961,7.961,0,0,0-1.30459-.1451h-39.7193v-.09658a8.36691,8.36691,0,0,0,5.02517-3.044,9.72528,9.72528,0,0,0,1.54627-5.75023v-49.3833a9.728,9.728,0,0,0-1.54627-5.75023,8.36281,8.36281,0,0,0-5.02517-3.044v-.097h36.62675a8.82054,8.82054,0,0,0,1.3531-.14466,2.90468,2.90468,0,0,0,1.35267-.53146l2.02964,19.13481h-.58a27.85062,27.85062,0,0,0-1.93262-8.74619,13.42868,13.42868,0,0,0-3.47933-4.92858,10.39153,10.39153,0,0,0-4.34863-2.22282,19.96083,19.96083,0,0,0-4.44564-.53145H960.284v30.53825h11.50025a9.71654,9.71654,0,0,0,5.75023-1.54627,8.36066,8.36066,0,0,0,3.044-5.02518h.09658v15.17254h-.09658a8.36584,8.36584,0,0,0-3.044-5.02517,9.729,9.729,0,0,0-5.75023-1.54627H960.284v30.63527h18.07169a19.24,19.24,0,0,0,4.39714-.53189,10.13992,10.13992,0,0,0,4.30054-2.2709,14.39664,14.39664,0,0,0,3.52741-4.97709,26.85436,26.85436,0,0,0,1.98114-8.74576Z" transform="translate(-16.89787 -436)" style="fill: #6e2814"/>
        <path d="M1063.20541,584.15636h-19.52116l-.19339-.09658q3.189-1.05771,2.65747-3.41567a13.80578,13.80578,0,0,0-2.94745-5.33962l-9.954-12.50576h-14.01284v12.50576a11.11324,11.11324,0,0,0,1.30459,5.3877q1.30459,2.40582,5.26686,3.36759v.09658H1007.637v-.09658q3.96184-.9648,5.26708-3.38232a11.20243,11.20243,0,0,0,1.30459-5.412v-49.3833a10.93463,10.93463,0,0,0-1.30459-5.36388q-1.30491-2.36684-5.26708-3.43039v-.097h27.63932a35.42324,35.42324,0,0,1,11.16219,1.64763,24.00016,24.00016,0,0,1,8.3594,4.5994,19.9934,19.9934,0,0,1,5.21835,7.16657,23.4153,23.4153,0,0,1,1.83625,9.44223q0,9.59015-5.89511,15.642-5.89566,6.0519-16.52564,7.11676l10.05078,12.69893a27.99187,27.99187,0,0,0,5.50855,5.33962,20.81274,20.81274,0,0,0,8.02113,3.41567Zm-28.41223-23.38684a28.98678,28.98678,0,0,0,9.90568-1.4982,17.45338,17.45338,0,0,0,6.71654-4.204,16.31327,16.31327,0,0,0,3.81739-6.57144,31.22438,31.22438,0,0,0,0-17.20219,16.3366,16.3366,0,0,0-3.81739-6.57144,17.49434,17.49434,0,0,0-6.71654-4.204,29.02986,29.02986,0,0,0-9.90568-1.49776h-15.55911v41.749Z" transform="translate(-16.89787 -436)" style="fill: #6e2814"/>
        <path d="M1147.311,553.52109a45.13068,45.13068,0,0,1,6.70138,3.38274,19.43742,19.43742,0,0,1,5.256,4.6869,10.53231,10.53231,0,0,1,2.12191,6.62,13.05168,13.05168,0,0,1-1.68964,6.42678,17.31078,17.31078,0,0,1-4.728,5.36345,24.40891,24.40891,0,0,1-7.38226,3.72058,31.00967,31.00967,0,0,1-9.55246,1.40118,41.89712,41.89712,0,0,1-8.97554-1.01483,37.84123,37.84123,0,0,1-8.73233-3.044,29.29155,29.29155,0,0,1-7.29044-5.07369,19.10267,19.10267,0,0,1-4.73368-7.10289l7.15141-6.66847a18.72209,18.72209,0,0,0,1.44644,9.66443,18.978,18.978,0,0,0,5.258,6.86121,22.81152,22.81152,0,0,0,7.62243,4.05886,28.55574,28.55574,0,0,0,8.63575,1.35309,23.51482,23.51482,0,0,0,7.476-1.11141,18.33681,18.33681,0,0,0,5.69263-2.996,13.7751,13.7751,0,0,0,3.66644-4.34862,10.7368,10.7368,0,0,0,1.30329-5.07368,9.14521,9.14521,0,0,0-1.54627-5.26686,15.7926,15.7926,0,0,0-3.9142-3.96227,30.05757,30.05757,0,0,0-5.17027-2.94745q-2.80409-1.25522-5.21835-2.31941L1127.6625,550.429q-2.80408-1.25522-5.60514-2.75428a27.04274,27.04274,0,0,1-5.07368-3.47933,15.96675,15.96675,0,0,1-3.67207-4.63882,12.95628,12.95628,0,0,1-1.4014-6.13658,14.33192,14.33192,0,0,1,1.83626-7.19949,17.03634,17.03634,0,0,1,5.02517-5.50854,23.87514,23.87514,0,0,1,7.58627-3.47933,35.84428,35.84428,0,0,1,9.51911-1.208,33.18837,33.18837,0,0,1,16.81562,4.25247,27.96276,27.96276,0,0,1,4.92858,3.527,34.14638,34.14638,0,0,1,2.89937,2.94788l-4.05886,12.17658q-.38526-10.822-6.12185-16.38053-5.73681-5.5562-14.99128-5.55706a26.18014,26.18014,0,0,0-7.23132.96675,17.29284,17.29284,0,0,0-5.83166,2.85086,14.24643,14.24643,0,0,0-3.9051,4.5418,12.6487,12.6487,0,0,0-1.44492,6.137,11.436,11.436,0,0,0,3.13326,8.456,23.951,23.951,0,0,0,7.66619,5.07368l13.01923,5.79831Q1143.74222,552.07248,1147.311,553.52109Z" transform="translate(-16.89787 -436)" style="fill: #6e2814"/>
        <path d="M1212.416,516.02461a38.47049,38.47049,0,0,1,14.06113,2.46451,30.83268,30.83268,0,0,1,10.872,7.05482,32.15613,32.15613,0,0,1,7.05482,10.96858,38.473,38.473,0,0,1,2.51259,14.20622,37.81186,37.81186,0,0,1-2.51259,14.06113,31.73071,31.73071,0,0,1-7.05482,10.872,31.14356,31.14356,0,0,1-10.872,7.00674,41.49,41.49,0,0,1-28.17077,0,30.51016,30.51016,0,0,1-17.92724-17.87873,38.468,38.468,0,0,1-2.46407-14.06113,39.14212,39.14212,0,0,1,2.46407-14.20622,31.5455,31.5455,0,0,1,7.00674-10.96858,30.71928,30.71928,0,0,1,10.9205-7.05482A38.84685,38.84685,0,0,1,1212.416,516.02461Zm0,68.13175a28.49059,28.49059,0,0,0,11.83831-2.416,26.3086,26.3086,0,0,0,9.18062-6.81314,31.68537,31.68537,0,0,0,5.9434-10.53371,41.60207,41.60207,0,0,0,2.12624-13.67478,42.362,42.362,0,0,0-2.12624-13.81987,32.19065,32.19065,0,0,0-5.9434-10.63031,26.09082,26.09082,0,0,0-9.18062-6.86164,30.33047,30.33047,0,0,0-23.72512,0,26.65637,26.65637,0,0,0-9.18106,6.86164,31.06334,31.06334,0,0,0-5.9434,10.63031,43.201,43.201,0,0,0-2.07773,13.81987,42.42437,42.42437,0,0,0,2.07773,13.67478,30.58077,30.58077,0,0,0,5.9434,10.53371,26.88476,26.88476,0,0,0,9.18106,6.81314A28.38537,28.38537,0,0,0,1212.416,584.15636Z" transform="translate(-16.89787 -436)" style="fill: #6e2814"/>
        <path d="M1288.76124,516.99092a35.42324,35.42324,0,0,1,11.16219,1.64763,24.00016,24.00016,0,0,1,8.3594,4.5994,19.9934,19.9934,0,0,1,5.21835,7.16657,25.19626,25.19626,0,0,1,0,18.884,20.45143,20.45143,0,0,1-5.21835,7.21507,23.55463,23.55463,0,0,1-8.3594,4.64922,35.42472,35.42472,0,0,1-11.16219,1.64589H1272.719v12.50576a11.11323,11.11323,0,0,0,1.30458,5.3877q1.30459,2.40582,5.26686,3.36759v.09658h-18.1685v-.09658q3.96184-.9648,5.2673-3.38232a11.20242,11.20242,0,0,0,1.30458-5.412v-49.3833a10.93462,10.93462,0,0,0-1.30458-5.36388q-1.30524-2.36684-5.2673-3.43039v-.097Zm-.48337,43.7786a28.985,28.985,0,0,0,9.90567-1.4982,17.45517,17.45517,0,0,0,6.717-4.204,16.31551,16.31551,0,0,0,3.81718-6.57144,31.22463,31.22463,0,0,0,0-17.20219,16.33886,16.33886,0,0,0-3.81718-6.57144,17.49614,17.49614,0,0,0-6.717-4.204,29.02808,29.02808,0,0,0-9.90567-1.49776H1272.719v41.749Z" transform="translate(-16.89787 -436)" style="fill: #6e2814"/>
        <path d="M1377.96043,516.99092v.097q-3.9638,1.06421-5.31494,3.43039a10.612,10.612,0,0,0-1.3531,5.36388v58.27415h-2.02964l-31.98794-57.01807v48.12722a11.16635,11.16635,0,0,0,1.30935,5.412q1.30849,2.41622,5.285,3.38232v.09658h-15.19549v-.09658q3.96118-.9648,5.26686-3.38232a11.20242,11.20242,0,0,0,1.30458-5.412v-49.3833a10.93462,10.93462,0,0,0-1.30458-5.36388q-1.30459-2.36684-5.26686-3.43039v-.097h8.60109l31.98794,57.11467V525.88221a11.03187,11.03187,0,0,0-1.29073-5.36388q-1.29159-2.36684-5.20665-3.43039v-.097Z" transform="translate(-16.89787 -436)" style="fill: #6e2814"/>
        <path d="M1426.28126,516.02461a38.46886,38.46886,0,0,1,14.06113,2.46451,30.82882,30.82882,0,0,1,10.872,7.05482,32.15642,32.15642,0,0,1,7.05482,10.96858,38.473,38.473,0,0,1,2.51258,14.20622,37.81186,37.81186,0,0,1-2.51258,14.06113,31.731,31.731,0,0,1-7.05482,10.872,31.13962,31.13962,0,0,1-10.872,7.00674,41.49,41.49,0,0,1-28.17077,0,30.50792,30.50792,0,0,1-17.92681-17.87873,38.459,38.459,0,0,1-2.46451-14.06113,39.133,39.133,0,0,1,2.46451-14.20622,31.53806,31.53806,0,0,1,7.00631-10.96858,30.72308,30.72308,0,0,1,10.9205-7.05482A38.84681,38.84681,0,0,1,1426.28126,516.02461Zm0,68.13175a28.48908,28.48908,0,0,0,11.8383-2.416,26.31022,26.31022,0,0,0,9.18106-6.81314,31.70034,31.70034,0,0,0,5.9434-10.53371,41.60225,41.60225,0,0,0,2.1258-13.67478,42.36219,42.36219,0,0,0-2.1258-13.81987,32.20593,32.20593,0,0,0-5.9434-10.63031,26.09241,26.09241,0,0,0-9.18106-6.86164,30.33047,30.33047,0,0,0-23.72512,0,26.66036,26.66036,0,0,0-9.18105,6.86164,31.06352,31.06352,0,0,0-5.94341,10.63031,43.21323,43.21323,0,0,0-2.07772,13.81987,42.43642,42.43642,0,0,0,2.07772,13.67478,30.581,30.581,0,0,0,5.94341,10.53371,26.88883,26.88883,0,0,0,9.18105,6.81314A28.38826,28.38826,0,0,0,1426.28126,584.15636Z" transform="translate(-16.89787 -436)" style="fill: #6e2814"/>
        <path d="M1527.46125,584.15636,1513.255,525.88221a14.24017,14.24017,0,0,0-2.65769-5.36388q-1.88411-2.36684-6.23317-3.43039v-.097h18.26509v.097q-3.674,1.06421-4.39714,3.43039a9.78505,9.78505,0,0,0,.04851,5.36388l13.04631,53.44216,13.04673-53.44216a9.8011,9.8011,0,0,0,.04808-5.36388q-.72441-2.36684-4.39713-3.43039v-.097h15.17253v.097q-4.34839,1.06421-6.23317,3.43039a14.22107,14.22107,0,0,0-2.65768,5.36388l-14.20623,58.27415Z" transform="translate(-16.89787 -436)" style="fill: #6e2814"/>
        <path d="M1598.87787,575.26551a14.24814,14.24814,0,0,0,2.70619,5.412,10.61689,10.61689,0,0,0,6.18509,3.38232v.09658h-18.26508v-.09658q3.67143-1.06226,4.39713-3.43083a9.79964,9.79964,0,0,0-.04851-5.36344l-1.44968-5.99192h-23.09708l-1.54628,5.99192a9.78284,9.78284,0,0,0-.04807,5.36344q.7244,2.36944,4.39713,3.43083v.09658h-15.17254v-.09658q4.34841-1.06226,6.23317-3.43083a14.22272,14.22272,0,0,0,2.65769-5.36344l12.36975-50.44663q.77248-5.79854-6.668-7.73094v-.097h13.14332Zm-6.9578-8.02113L1580.806,521.82292l-11.01666,45.42146Z" transform="translate(-16.89787 -436)" style="fill: #6e2814"/>
        <path d="M1655.92626,553.52109a45.1308,45.1308,0,0,1,6.70139,3.38274,19.4393,19.4393,0,0,1,5.25646,4.6869,10.53465,10.53465,0,0,1,2.12147,6.62,13.047,13.047,0,0,1-1.68964,6.42678,17.31485,17.31485,0,0,1-4.72761,5.36345,24.41656,24.41656,0,0,1-7.3827,3.72058,31.00532,31.00532,0,0,1-9.55225,1.40118,41.899,41.899,0,0,1-8.97574-1.01483,37.84128,37.84128,0,0,1-8.7319-3.044,29.28366,29.28366,0,0,1-7.29044-5.07369,19.10628,19.10628,0,0,1-4.73411-7.10289l7.1514-6.66847a18.72651,18.72651,0,0,0,1.44666,9.66443,18.97973,18.97973,0,0,0,5.25776,6.86121,22.81468,22.81468,0,0,0,7.62265,4.05886,28.5568,28.5568,0,0,0,8.63575,1.35309,23.51718,23.51718,0,0,0,7.47625-1.11141,18.34643,18.34643,0,0,0,5.69262-2.996,13.78652,13.78652,0,0,0,3.66645-4.34862,10.73624,10.73624,0,0,0,1.30285-5.07368,9.142,9.142,0,0,0-1.54627-5.26686,15.798,15.798,0,0,0-3.91376-3.96227,30.0908,30.0908,0,0,0-5.17027-2.94745q-2.80408-1.25522-5.21878-2.31941l-13.04631-5.70172q-2.80409-1.25522-5.60513-2.75428a27.03526,27.03526,0,0,1-5.07368-3.47933,15.97172,15.97172,0,0,1-3.67251-4.63882,12.95621,12.95621,0,0,1-1.40118-6.13658,14.33618,14.33618,0,0,1,1.836-7.19949,17.03776,17.03776,0,0,1,5.02561-5.50854,23.86827,23.86827,0,0,1,7.58583-3.47933,35.84713,35.84713,0,0,1,9.51933-1.208,33.18495,33.18495,0,0,1,16.8154,4.25247,27.96239,27.96239,0,0,1,4.92858,3.527,34.08076,34.08076,0,0,1,2.89937,2.94788l-4.05885,12.17658q-.38527-10.822-6.12143-16.38053-5.73746-5.5562-14.99149-5.55706a26.185,26.185,0,0,0-7.23153.96675,17.30078,17.30078,0,0,0-5.83166,2.85086,14.25428,14.25428,0,0,0-3.9051,4.5418,12.6487,12.6487,0,0,0-1.44492,6.137,11.436,11.436,0,0,0,3.13326,8.456,23.95193,23.95193,0,0,0,7.6664,5.07368l13.01944,5.79831Q1652.35728,552.07248,1655.92626,553.52109Z" transform="translate(-16.89787 -436)" style="fill: #6e2814"/>
        <path d="M1742.3885,535.44961h-.57952a26.87137,26.87137,0,0,0-1.98114-8.74619,13.89043,13.89043,0,0,0-3.52741-4.92858,10.39408,10.39408,0,0,0-4.34862-2.22282,19.96242,19.96242,0,0,0-4.44565-.53145H1716.0057v56.24494a9.716,9.716,0,0,0,1.54627,5.75023,8.36435,8.36435,0,0,0,5.02518,3.044v.09658h-18.26509v-.09658a8.59349,8.59349,0,0,0,5.07368-3.044,9.49919,9.49919,0,0,0,1.59479-5.75023V519.02057h-11.59662a19.95061,19.95061,0,0,0-4.44565.53145,10.39156,10.39156,0,0,0-4.34862,2.22282,13.86922,13.86922,0,0,0-3.52741,4.92858,25.42379,25.42379,0,0,0-1.885,8.74619h-.57953l2.02965-19.13481a2.896,2.896,0,0,0,1.35266.53146,8.79684,8.79684,0,0,0,1.3531.14466h48.3204a7.95761,7.95761,0,0,0,1.30459-.14466,2.85475,2.85475,0,0,0,1.30458-.53146Z" transform="translate(-16.89787 -436)" style="fill: #6e2814"/>
        <path d="M1810.81046,584.15636h-19.5216l-.19317-.09658q3.1887-1.05771,2.65768-3.41567a13.81067,13.81067,0,0,0-2.94788-5.33962l-9.95376-12.50576h-14.01305v12.50576a11.11324,11.11324,0,0,0,1.30459,5.3877q1.30458,2.40582,5.26686,3.36759v.09658h-18.16807v-.09658q3.96184-.9648,5.26686-3.38232a11.20231,11.20231,0,0,0,1.30459-5.412v-49.3833a10.93452,10.93452,0,0,0-1.30459-5.36388q-1.30458-2.36684-5.26686-3.43039v-.097H1782.881a35.42313,35.42313,0,0,1,11.16218,1.64763,24.00012,24.00012,0,0,1,8.35941,4.5994,19.99959,19.99959,0,0,1,5.21878,7.16657,23.41526,23.41526,0,0,1,1.836,9.44223q0,9.59015-5.89533,15.642t-16.5252,7.11676l10.05077,12.69893a27.99187,27.99187,0,0,0,5.50855,5.33962,20.81065,20.81065,0,0,0,8.0207,3.41567ZM1782.398,560.76952a28.98672,28.98672,0,0,0,9.90567-1.4982,17.45018,17.45018,0,0,0,6.71655-4.204,16.3163,16.3163,0,0,0,3.81761-6.57144,31.23532,31.23532,0,0,0,0-17.20219,16.33965,16.33965,0,0,0-3.81761-6.57144,17.49113,17.49113,0,0,0-6.71655-4.204,29.0298,29.0298,0,0,0-9.90567-1.49776h-15.55933v41.749Z" transform="translate(-16.89787 -436)" style="fill: #6e2814"/>
        <path d="M1863.28543,575.26551a14.24727,14.24727,0,0,0,2.70577,5.412,10.61823,10.61823,0,0,0,6.18509,3.38232v.09658h-18.26508v-.09658q3.67142-1.06226,4.39713-3.43083a9.80339,9.80339,0,0,0-.04808-5.36344l-1.45012-5.99192h-23.09708l-1.54627,5.99192a9.78294,9.78294,0,0,0-.04808,5.36344q.72441,2.36944,4.39714,3.43083v.09658h-15.17254v-.09658q4.34841-1.06226,6.23317-3.43083a14.22256,14.22256,0,0,0,2.65768-5.36344l12.37019-50.44663q.77184-5.79854-6.66847-7.73094v-.097h13.1429Zm-6.95823-8.02113-11.11367-45.42146-11.01709,45.42146Z" transform="translate(-16.89787 -436)" style="fill: #6e2814"/>
      </g>
    </g>
  </g>
</svg>
