<svg id="Layer_1" data-name="Layer 1" xmlns="http://www.w3.org/2000/svg" viewBox="0 0 1834 321.27237">
  <g>
    <g>
      <g>
        <path d="M33,425.25938l43.72653.58294,21.86326.29137,10.93163.14579,2.73291.03639,3.19167.109c.53663.02312,1.07333.03532,1.60944.06957l1.60739.137c1.07052.10276,2.14372.1657,3.21.30978a86.59568,86.59568,0,0,1,36.13825,12.82367,89.11785,89.11785,0,0,1,10.2991,7.63178,86.97864,86.97864,0,0,1,16.67165,19.28978,82.94784,82.94784,0,0,1,6.02622,11.24975l.63992,1.46238c.21585.48618.42612.9745.609,1.47459l1.13578,2.98258c.36026,1.0004.67187,2.01836,1.00582,3.02754.1602.50694.3358,1.009.48134,1.52l.42093,1.53818.41668,1.53838c.14317.51187.27529,1.02609.38206,1.54674l.68,3.11252c.21,1.04022.3638,2.09115.54411,3.13629l.25391,1.57029.18566,1.57906c.11237,1.05371.26442,2.10377.33636,3.15962l.2048,3.16776c.04153.52771.05224,1.05585.05705,1.5842l.02314,1.5842.01918,1.58377.00318.38942-.00455.34167-.0091.68335-.29141,21.86324-.58282,43.7265-.58282,43.72649-.14571,10.93162-.07285,5.46571-.01821,1.36648-.00456.34167-.00288.17769-.00911.24555-.0419.98156a34.6651,34.6651,0,0,1-.40308,3.9361,31.33832,31.33832,0,0,1-6.57818,14.56971,32.09244,32.09244,0,0,1-28.15307,11.58929,31.01477,31.01477,0,0,1-7.76374-1.9c-.61676-.25669-1.24871-.48276-1.84416-.78247q-.89841-.43929-1.787-.89657-.85872-.50191-1.70713-1.02117c-.57173-.338-1.08814-.74265-1.62905-1.11879-.26568-.19331-.53626-.38235-.79488-.5823l-.752-.6234c-.49049-.42431-1.01541-.82528-1.46241-1.28278l-1.37279-1.3532c-.42135-.43052-.76924-.85012-1.14449-1.27935L140.145,661.716c-.37263-.42474-.69248-.88694-1.039-1.33009l-1.01491-1.34614c-.323-.45835-.627-.9289-.93906-1.39388a51.5676,51.5676,0,0,1-5.87634-11.97934,49.37211,49.37211,0,0,1-2.565-13.12574,46.2462,46.2462,0,0,1,1.21459-13.52222l.41984-1.66705c.16552-.553.35282-1.10359.53189-1.6542.18524-.54869.35727-1.10359.55992-1.64372l.65911-1.59683c.23094-.52621.4256-1.07233.6922-1.57842l.77251-1.53368c.49348-1.03593,1.11319-1.99159,1.69342-2.97187a44.98806,44.98806,0,0,1,8.79568-10.28981,43.43254,43.43254,0,0,1,11.57735-7.17257l1.60282-.64524c.53393-.2143,1.09789-.36737,1.64651-.55019l1.65867-.51743,1.702-.39905c.57-.1231,1.13224-.27124,1.70933-.36544l1.73882-.252a32.99582,32.99582,0,0,1,3.4636-.31106,42.41843,42.41843,0,0,1,13.41117,1.60111,50.932,50.932,0,0,1,11.93145,5.06045,62.11946,62.11946,0,0,1,10.18181,7.39243c.76728.70069,1.53218,1.417,2.2714,2.13439.70934.73109,1.45237,1.441,2.12855,2.19284.68843.74436,1.37882,1.48765,2.02625,2.25448l.98234,1.144.94623,1.16118a107.989,107.989,0,0,1,6.84907,9.5463c2.08569,3.23284,4.01319,6.48966,5.85623,9.71843,1.84259,3.23412,3.60452,6.41451,5.38143,9.5767q2.66425,4.74747,5.35569,9.44612c3.59652,6.26016,7.26088,12.44025,11.09167,18.47327A223.27486,223.27486,0,0,0,273.20238,699.335a139.2124,139.2124,0,0,0,15.407,14.13235,120.21045,120.21045,0,0,0,17.38464,11.417,99.11916,99.11916,0,0,0,19.07907,7.86341,82.36372,82.36372,0,0,0,20.202,3.29792l-.1957,10.48612a93.13985,93.13985,0,0,1-22.93838-3.10846,110.44724,110.44724,0,0,1-21.5025-8.18882A141.65067,141.65067,0,0,1,263.99738,708.257a236.49571,236.49571,0,0,1-28.138-35.02859c-4.149-6.16489-8.088-12.42462-11.92147-18.70319q-2.87076-4.71022-5.68178-9.42642l-5.58057-9.33972a128.773,128.773,0,0,0-11.76634-16.91433l-.8049-.937-.82394-.90684c-.54319-.61292-1.11137-1.1873-1.67517-1.76639-.55593-.59108-1.15249-1.11921-1.72373-1.68375-.58391-.53413-1.16445-1.04771-1.75446-1.5615a45.97718,45.97718,0,0,0-7.62169-5.22958,34.47306,34.47306,0,0,0-8.22742-3.24247,25.6482,25.6482,0,0,0-8.22549-.77219,16.722,16.722,0,0,0-1.97064.23785l-.96283.16013c-.3206.0578-.6357.16548-.95419.24148l-.95447.24213-.93839.33354c-.31118.11667-.632.19588-.93734.3361l-.91918.40761a26.12573,26.12573,0,0,0-6.80316,4.49121,27.37017,27.37017,0,0,0-5.1751,6.4173c-.32187.602-.701,1.17637-.95963,1.8032l-.435.91819c-.159.30079-.24444.62662-.3735.93661l-.36431.93725c-.10772.31555-.18726.63774-.28587.95437l-.28617.95288-.21143.99205a29.55209,29.55209,0,0,0,1.35747,16.40632,32.784,32.784,0,0,0,3.93534,7.48449c.20436.28494.39832.57823.607.8591l.65863.81437c.22385.26674.42129.55832.66261.8073l.70257.76619c.23061.25091.46714.53157.69343.74222q.30378.26653.59485.54356a6.75374,6.75374,0,0,0,.60957.49688l.30247.24576c.10431.0745.21419.137.31934.20809.21642.12909.41018.30314.63451.41018q.32967.174.64792.36522c.22635.0957.44944.195.66915.30164.2171.11389.45809.164.68111.25883a11.58514,11.58514,0,0,0,2.84326.59771,12.31706,12.31706,0,0,0,5.877-1.0627A11.98049,11.98049,0,0,0,173.955,649.699c.13253-.19909.2926-.37914.41764-.581q.17976-.30764.37649-.602c.105-.21173.20925-.42238.32343-.6279.11763-.20381.18021-.43459.28281-.64524a12.0396,12.0396,0,0,0,.73839-2.75587,14.517,14.517,0,0,0,.09266-1.50285l.01019-.38384.00391-.09591-.00167-.164-.00456-.34167-.01821-1.36648-.07285-5.46571-.14571-10.93162-.58281-43.72649-.58282-43.7265-.29141-21.86324-.00911-.68335-.00455-.34167-.0121-.2933-.0499-1.14833-.04594-1.1479c-.01109-.38278-.02676-.76491-.07178-1.1449l-.20964-2.28232c-.06813-.76042-.2105-1.5112-.30781-2.26712l-.15884-1.13206-.21844-1.12115c-.15378-.74564-.27558-1.49728-.44771-2.238l-.5492-2.21338c-.08216-.37122-.18823-.7358-.30387-1.098l-.32986-1.09031-.32562-1.091c-.11237-.36244-.25337-.71567-.37754-1.074-.2619-.71225-.4957-1.43413-.77272-2.14017l-.86911-2.10228c-.13564-.35409-.29738-.697-.46329-1.03808l-.48589-1.028a58.08392,58.08392,0,0,0-4.5046-7.8831,61.63254,61.63254,0,0,0-12.18476-13.34646,63.34808,63.34808,0,0,0-7.39538-5.17349,65.0828,65.0828,0,0,0-8.04738-4.01359,60.07011,60.07011,0,0,0-17.35345-4.2326c-.74124-.08477-1.49139-.09441-2.2355-.14985l-1.11766-.07044c-.37332-.01348-.7482-.00642-1.122-.01177l-2.2725-.02077-2.73291.0364-10.93163.14579-21.86326.29136L33,454.39774Z" transform="translate(-33 -425.25938)" style="fill: #e1b06f"/>
        <path d="M657.35438,454.39774l-43.72653-.58294-21.86327-.29136-10.93162-.14579-2.73291-.0364-2.2725.02077c-.37378.00535-.74866-.00171-1.122.01177l-1.11766.07044c-.74409.05544-1.49426.06508-2.23549.14985a60.2693,60.2693,0,0,0-25.40083,8.24619,63.34757,63.34757,0,0,0-7.39541,5.17349,61.63321,61.63321,0,0,0-12.18474,13.34646,58.08385,58.08385,0,0,0-4.50459,7.8831l-.48588,1.028c-.16592.341-.32768.684-.4633,1.03808l-.86912,2.10228c-.277.706-.51082,1.42792-.77272,2.14017-.12417.35837-.26517.7116-.37754,1.074l-.32561,1.091-.32988,1.09031c-.11563.36223-.2217.72681-.30386,1.098l-.5492,2.21338c-.17212.74072-.29393,1.49236-.44772,2.238l-.21842,1.12115-.15884,1.13206c-.0973.75592-.23969,1.5067-.30783,2.26712l-.20963,2.28232c-.045.38-.0607.76212-.07178,1.1449l-.04594,1.1479-.04991,1.14833-.0121.2933-.00454.34167-.0091.68335-.29142,21.86324-.58281,43.7265-.58281,43.72649-.14571,10.93162-.07287,5.46571-.01819,1.36648-.00458.34167-.00166.164.00391.09591.01019.38384a14.51984,14.51984,0,0,0,.09265,1.50285,12.04062,12.04062,0,0,0,.73839,2.75587c.1026.21065.16519.44143.28283.64524.11418.20552.21844.41617.32342.6279q.19713.2948.37649.602c.125.20187.2851.38192.41765.581a11.9805,11.9805,0,0,0,4.63755,3.65308,12.31716,12.31716,0,0,0,5.877,1.0627,11.58543,11.58543,0,0,0,2.84326-.59771c.223-.09484.464-.14494.6811-.25883.2197-.10661.4428-.20594.66916-.30164q.3188-.19139.64792-.36522c.22433-.107.41807-.28109.63451-.41018.10514-.07108.215-.13359.31933-.20809l.30247-.24576a6.75374,6.75374,0,0,0,.60957-.49688q.29142-.27714.59485-.54356c.22628-.21065.46281-.49131.69343-.74222l.70256-.76619c.24133-.249.43879-.54056.66261-.8073l.65865-.81437c.20862-.28087.40258-.57416.60695-.8591a32.78359,32.78359,0,0,0,3.93534-7.48449,29.552,29.552,0,0,0,1.35749-16.40632l-.21146-.99205-.28614-.95288c-.09862-.31663-.17817-.63882-.28588-.95437l-.36432-.93725c-.12906-.31-.21451-.63582-.37349-.93661l-.435-.91819c-.25864-.62683-.63775-1.20121-.95965-1.8032a27.36988,27.36988,0,0,0-5.17509-6.4173,26.12551,26.12551,0,0,0-6.80315-4.49121l-.91918-.40761c-.30536-.14022-.62616-.21943-.93736-.3361l-.93837-.33354-.95448-.24213c-.3185-.076-.6336-.18368-.95418-.24148l-.96283-.16013a16.72265,16.72265,0,0,0-1.97065-.23785,25.64834,25.64834,0,0,0-8.2255.77219,34.47332,34.47332,0,0,0-8.22741,3.24247,45.97668,45.97668,0,0,0-7.62168,5.22958c-.59.51379-1.17057,1.02737-1.75448,1.5615-.57122.56454-1.16778,1.09267-1.72373,1.68375-.56378.57909-1.132,1.15347-1.67515,1.76639l-.824.90684-.80489.937a128.772,128.772,0,0,0-11.76635,16.91433l-5.58056,9.33972q-2.81276,4.7131-5.6818,9.42642c-3.83344,6.27857-7.77248,12.5383-11.92145,18.70319A236.49578,236.49578,0,0,1,426.357,708.257a141.6505,141.6505,0,0,1-36.64108,26.97743,110.44724,110.44724,0,0,1-21.5025,8.18882,93.13972,93.13972,0,0,1-22.93838,3.10846l-.1957-10.48612a82.36372,82.36372,0,0,0,20.202-3.29792,99.11951,99.11951,0,0,0,19.07908-7.86341,120.21035,120.21035,0,0,0,17.38463-11.417A139.2115,139.2115,0,0,0,417.152,699.335a223.27415,223.27415,0,0,0,25.6402-33.76316c3.8308-6.033,7.49517-12.21311,11.09168-18.47327q2.69462-4.69866,5.35569-9.44612c1.7769-3.16219,3.53884-6.34258,5.38144-9.5767,1.843-3.22877,3.77053-6.48559,5.85622-9.71843a107.987,107.987,0,0,1,6.84907-9.5463l.94623-1.16118.98234-1.144c.64744-.76683,1.33782-1.51012,2.02625-2.25448.67618-.75186,1.41923-1.46175,2.12856-2.19284.73922-.71738,1.5041-1.4337,2.2714-2.13439a62.11938,62.11938,0,0,1,10.1818-7.39243,50.932,50.932,0,0,1,11.93147-5.06045,42.41823,42.41823,0,0,1,13.41116-1.60111,32.99515,32.99515,0,0,1,3.46359.31106l1.73882.252c.57708.0942,1.13931.24234,1.70933.36544l1.702.39905,1.65867.51743c.54862.18282,1.11256.33589,1.6465.55019l1.60283.64524a43.43254,43.43254,0,0,1,11.57735,7.17257,44.98806,44.98806,0,0,1,8.79568,10.28981c.58021.98028,1.19992,1.93594,1.69341,2.97187l.77251,1.53368c.26661.50609.46126,1.05221.6922,1.57842l.6591,1.59683c.20266.54013.3747,1.095.55993,1.64372.17906.55061.36638,1.10123.53189,1.6542l.41984,1.66705a46.24688,46.24688,0,0,1,1.21459,13.52222,49.37251,49.37251,0,0,1-2.565,13.12574,51.56681,51.56681,0,0,1-5.87634,11.97934c-.31208.465-.61605.93553-.93907,1.39388l-1.0149,1.34614c-.34652.44315-.66638.90535-1.039,1.33009l-1.1041,1.28427c-.37523.42923-.72311.84883-1.14448,1.27935l-1.37279,1.3532c-.447.4575-.97193.85847-1.46242,1.28278l-.752.6234c-.25861.19995-.52918.389-.79485.5823-.54093.37614-1.05735.78076-1.62905,1.11879q-.84789.51894-1.70714,1.02117-.8871.45857-1.787.89657c-.59544.29971-1.22741.52578-1.84418.78247a31.01459,31.01459,0,0,1-7.76373,1.9A32.0925,32.0925,0,0,1,500.69459,662.251a31.33817,31.33817,0,0,1-6.57815-14.56971,34.65371,34.65371,0,0,1-.40309-3.9361l-.04191-.98156-.0091-.24555-.00289-.17769-.00455-.34167-.01822-1.36648-.07284-5.46571-.14571-10.93162-.58284-43.72649-.5828-43.7265-.29142-21.86324-.0091-.68335-.00455-.34167.00318-.38942.01919-1.58377.02315-1.5842c.00479-.52835.01552-1.05649.057-1.5842l.2048-3.16776c.072-1.05585.224-2.10591.33637-3.15962l.18567-1.57906.2539-1.57029c.18031-1.04514.33415-2.09607.54411-3.13629l.68-3.11252c.10677-.52065.23888-1.03487.382-1.54674l.41668-1.53838.42094-1.53818c.14555-.511.32115-1.013.48133-1.52.334-1.00918.64557-2.02714,1.00584-3.02754l1.13578-2.98258c.1829-.50009.39318-.98841.609-1.47459l.63992-1.46238a82.949,82.949,0,0,1,6.02622-11.24975,86.97838,86.97838,0,0,1,16.67165-19.28978,89.11945,89.11945,0,0,1,10.29909-7.63178,91.07325,91.07325,0,0,1,11.34-6.04822,86.6042,86.6042,0,0,1,24.79821-6.77545c1.06626-.14408,2.13945-.207,3.21-.30978l1.60738-.137c.53611-.03425,1.07281-.04645,1.60943-.06957l3.19168-.109,2.73291-.03639,10.93162-.14579,21.86327-.29137,43.72653-.58294Z" transform="translate(-33 -425.25938)" style="fill: #e1b06f"/>
      </g>
      <path d="M385.18124,588.16665l-1.26363-.04792a39.00123,39.00123,0,0,0-.43928-3.89883l1.209-.33161a.91919.91919,0,0,0-.34909-1.7995l-1.24108.14383a38.48029,38.48029,0,0,0-1.03387-3.78911l1.134-.50761a.91921.91921,0,0,0-.61967-1.72516l-1.19578.32917a38.63361,38.63361,0,0,0-1.60494-3.587l1.03892-.67215a.91915.91915,0,0,0-.87565-1.61028l-1.12795.50615a38.82836,38.82836,0,0,0-2.1348-3.30056l.92172-.82055a.91923.91923,0,0,0-1.11123-1.4579l-1.03368.66991a39.05189,39.05189,0,0,0-2.612-2.9397l.78021-.94543a.9192.9192,0,0,0-1.32076-1.27111l-.911.81258a38.94281,38.94281,0,0,0-3.03184-2.51053l.62025-1.04223a.91911.91911,0,0,0-1.4992-1.05447l-.77108.93561a38.82708,38.82708,0,0,0-3.38346-2.01555l.4525-1.121a.91925.91925,0,0,0-1.64284-.81336l-.61655,1.03844a38.568,38.568,0,0,0-3.65306-1.47451l.27524-1.17382a.9193.9193,0,0,0-1.74781-.55319l-.45017,1.11881a38.56208,38.56208,0,0,0-3.83615-.89509l.09291-1.20492a.91919.91919,0,0,0-1.81156-.2799l-.27523,1.17907a39.09116,39.09116,0,0,0-3.92634-.29758l-.09253-1.21114a.91923.91923,0,0,0-1.83313,0l-.09233,1.21114a39.08668,39.08668,0,0,0-3.92634.29758l-.27543-1.17907a.91919.91919,0,0,0-1.81156.2799l.09311,1.20492a38.5375,38.5375,0,0,0-3.83616.89509l-.45036-1.11881a.9192.9192,0,0,0-1.74761.55319l.27523,1.17382a38.5238,38.5238,0,0,0-3.65305,1.47442l-.61675-1.03835a.91916.91916,0,0,0-1.64265.81336l.45231,1.121a38.8021,38.8021,0,0,0-3.38346,2.01555l-.77088-.93561a.9192.9192,0,0,0-1.4994,1.05447l.62025,1.04223a38.98023,38.98023,0,0,0-3.03184,2.51053l-.911-.81258a.9192.9192,0,0,0-1.32076,1.27111l.78041.94543a39.0523,39.0523,0,0,0-2.61219,2.9397l-1.03348-.66991a.91929.91929,0,0,0-1.11143,1.4579l.92172.82065a38.87628,38.87628,0,0,0-2.13461,3.30046l-1.12795-.50615a.91914.91914,0,0,0-.87565,1.61028l1.03873.67215a38.57939,38.57939,0,0,0-1.60474,3.587l-1.19579-.32917a.9192.9192,0,0,0-.61966,1.72516l1.13378.50761a38.533,38.533,0,0,0-1.03387,3.78911l-1.24108-.14383a.91919.91919,0,0,0-.34909,1.7995l1.2092.33161a38.88691,38.88691,0,0,0-.43929,3.89883l-1.26381.04792a.91917.91917,0,0,0-.07017,1.83167l1.26031.14491c-.00136.139-.01049.27611-.01049.41538,0,1.18111.06161,2.34725.16483,3.50144l-1.24963.2418a.91925.91925,0,0,0,.21012,1.82108l1.27139-.04937a38.68484,38.68484,0,0,0,.747,3.84743l-1.19831.42985a.9192.9192,0,0,0,.48574,1.76754l1.24943-.243a38.534,38.534,0,0,0,1.32776,3.68707l-1.12153.60917a.91921.91921,0,0,0,.74989,1.67268l1.20279-.43258a38.674,38.674,0,0,0,1.88114,3.43438l-1.02648.78177a.91916.91916,0,0,0,.99635,1.53856l1.13961-.62034a38.91319,38.91319,0,0,0,2.37816,3.10405l-.90694.94144a.91924.91924,0,0,0,1.21969,1.36849l1.04262-.79567a39.04858,39.04858,0,0,0,2.818,2.70607l-.75766,1.07605a.91922.91922,0,0,0,1.41426,1.16624l.91258-.94913a38.91291,38.91291,0,0,0,3.19453,2.24793l-.58449,1.179a.91919.91919,0,0,0,1.57559.93679l.75553-1.07528a38.69537,38.69537,0,0,0,3.50047,1.73546l-.39632,1.2507a.91913.91913,0,0,0,1.7.68536l.581-1.1745a38.48164,38.48164,0,0,0,3.72594,1.178L335.155,629.423a.91925.91925,0,0,0,1.78493.41771l.395-1.25041a38.75238,38.75238,0,0,0,3.86181.59109l-.00058,1.31669a.9192.9192,0,0,0,1.82769.14033l.201-1.30463q.97032.0481,1.95248.04937.98228,0,1.95248-.04937l.20079,1.30463a.9192.9192,0,0,0,1.82769-.14033l-.00058-1.31669a38.75238,38.75238,0,0,0,3.86181-.59109l.39516,1.25041a.91915.91915,0,0,0,1.78474-.41771l-.2006-1.29589a38.52189,38.52189,0,0,0,3.72575-1.1779l.581,1.1744a.91923.91923,0,0,0,1.70018-.68536l-.39652-1.2507a38.64325,38.64325,0,0,0,3.50047-1.73546l.75553,1.07528a.91919.91919,0,0,0,1.57559-.93679l-.58429-1.179a38.94385,38.94385,0,0,0,3.19433-2.24793l.91259.94913a.91922.91922,0,0,0,1.41426-1.16624l-.75748-1.07605a39.04584,39.04584,0,0,0,2.81783-2.70607l1.04282.79567a.91917.91917,0,0,0,1.2195-1.36849l-.90695-.94144a38.9131,38.9131,0,0,0,2.37835-3.10405l1.13942.62034a.91916.91916,0,0,0,.99636-1.53856l-1.02629-.78177a38.72529,38.72529,0,0,0,1.88114-3.43438l1.20278.43258a.91917.91917,0,0,0,.7497-1.67268l-1.12134-.60917a38.53019,38.53019,0,0,0,1.32757-3.68707l1.24963.243a.9192.9192,0,0,0,.48574-1.76754l-1.19851-.42985a38.62765,38.62765,0,0,0,.747-3.84743l1.27139.04937a.91926.91926,0,0,0,.21032-1.82108l-1.24983-.2418c.10341-1.15419.16483-2.32033.16483-3.50144,0-.13927-.00894-.2764-.01049-.41538l1.26031-.14491A.91917.91917,0,0,0,385.18124,588.16665Z" transform="translate(-33 -425.25938)" style="fill: #e59a4d"/>
    </g>
    <g>
      <g>
        <path d="M1202.42563,636.49973h-15.17192v10.79472h16.66278l-.5215,3.46555h-20.10821V620.25376h19.86587v3.46555h-15.89894v9.31488h15.17192Z" transform="translate(-33 -425.25938)" style="fill: #e1b06f"/>
        <path d="M1216.94033,642.26847c.82764,3.65843,3.32853,5.63526,7.74974,5.63526,4.75859,0,6.64293-2.23169,6.64293-5.11376,0-3.06018-1.50327-4.7739-7.61914-6.25374-7.188-1.74647-9.68375-4.20829-9.68375-8.497,0-4.53081,3.34138-8.22393,10.1513-8.22393,7.26463,0,10.25449,4.1992,10.66467,8.20562h-4.11678c-.54634-2.714-2.24443-4.942-6.69475-4.942-3.71431,0-5.79988,1.67262-5.79988,4.58026,0,2.86377,1.72206,3.99283,7.06767,5.28727,8.69983,2.11737,10.23522,5.5036,10.23522,9.41968,0,4.9199-3.64538,8.77561-11.10567,8.77561-7.6731,0-10.97637-4.19288-11.60834-8.87334Z" transform="translate(-33 -425.25938)" style="fill: #e1b06f"/>
        <path d="M1252.94792,623.71931h-9.85373v-3.46555h23.793v3.46555h-9.86657V650.76h-4.07268Z" transform="translate(-33 -425.25938)" style="fill: #e1b06f"/>
        <path d="M1276.49684,620.25376h10.90229c8.57352,0,14.37426,5.84442,14.37426,14.9435,0,9.02417-5.65345,15.56274-14.51127,15.56274h-10.76528Zm4.04485,27.07173h6.40059c7.17986,0,10.59531-5.141,10.59531-12.04334,0-6.02253-3.114-11.59389-10.57989-11.59389h-6.416Z" transform="translate(-33 -425.25938)" style="fill: #e1b06f"/>
        <path d="M1327.67293,650.76v-.2402c0-4.17,2.7428-8.487,8.68869-12.99044,4.62587-3.52967,5.88209-4.65145,5.88209-7.8404,0-2.893-1.53667-5.08357-5.0035-5.08357-3.49594,0-5.13752,1.82333-5.74294,5.34946h-3.77339c.5078-4.88523,3.62653-8.572,9.51633-8.572,6.46825,0,8.98327,4.16088,8.98327,8.20572,0,4.36362-1.85437,6.07177-7.18841,10.19241-3.97335,3.0757-6.09446,5.38777-6.81635,7.58842h15.142l-.55019,3.39062Z" transform="translate(-33 -425.25938)" style="fill: #e1b06f"/>
        <path d="M1376.57419,636.13077c0,7.14881-2.03634,15.15533-10.09478,15.15533-7.88589,0-10.06652-7.49134-10.06652-14.95164,0-7.40089,2.37416-14.95163,10.198-14.95163C1374.3546,621.38283,1376.57419,628.74732,1376.57419,636.13077Zm-16.09077.201c0,5.48807.95095,11.68519,6.02724,11.68519,5.1144,0,6.00584-5.89012,6.00584-11.87069,0-5.55562-.95352-11.49423-5.87739-11.49423C1361.59237,624.65206,1360.48342,629.99231,1360.48342,636.33179Z" transform="translate(-33 -425.25938)" style="fill: #e1b06f"/>
        <path d="M1406.519,636.13077c0,7.14881-2.03634,15.15533-10.09478,15.15533-7.88589,0-10.06652-7.49134-10.06652-14.95164,0-7.40089,2.37415-14.95163,10.198-14.95163C1404.2994,621.38283,1406.519,628.74732,1406.519,636.13077Zm-16.09077.201c0,5.48807.95095,11.68519,6.02724,11.68519,5.1144,0,6.00583-5.89012,6.00583-11.87069,0-5.55562-.95351-11.49423-5.87738-11.49423C1391.53717,624.65206,1390.42823,629.99231,1390.42823,636.33179Z" transform="translate(-33 -425.25938)" style="fill: #e1b06f"/>
        <path d="M1431.50355,628.1936a4.5405,4.5405,0,0,0-4.86435-3.663c-4.85665,0-6.4417,4.55275-6.589,10.64764a7.86625,7.86625,0,0,1,7.32072-4.01027c5.5858,0,8.84968,4.05673,8.84968,9.61513,0,5.6754-3.34138,10.503-9.73855,10.503-7.95226,0-10.27975-6.44534-10.27975-14.5725,0-7.94808,2.58953-15.33077,10.60258-15.33077,5.8761,0,8.15264,3.8329,8.529,6.81077Zm.75271,12.87634c0-3.22556-1.24767-6.67944-5.68172-6.67944-3.5653,0-6.08846,2.28371-6.08846,6.64294,0,2.38047,1.20956,7.0119,5.96258,7.0119C1430.61383,648.04534,1432.25626,644.68181,1432.25626,641.06994Z" transform="translate(-33 -425.25938)" style="fill: #e1b06f"/>
      </g>
      <g>
        <path d="M811.75913,571.71652H792.46164l-.191-.09548q3.15246-1.04557,2.627-3.37649a13.64749,13.64749,0,0,0-2.91364-5.27838l-9.83981-12.36233H768.2921v12.36233a10.98572,10.98572,0,0,0,1.28962,5.32591q1.28963,2.37822,5.20646,3.329v.09548H756.82806V571.621q3.91608-.95373,5.20666-3.34352a11.07391,11.07391,0,0,0,1.28963-5.34989V514.11072a10.80919,10.80919,0,0,0-1.28963-5.30236q-1.28994-2.3397-5.20666-3.39105v-.09591h27.32231a35.01674,35.01674,0,0,1,11.034,1.62873,23.72132,23.72132,0,0,1,8.26353,4.54666,19.76471,19.76471,0,0,1,5.15871,7.08437,23.14678,23.14678,0,0,1,1.81519,9.33394q0,9.48015-5.8275,15.46265-5.828,5.9825-16.3361,7.03513l9.9355,12.55329a27.67081,27.67081,0,0,0,5.44537,5.27838,20.57263,20.57263,0,0,0,7.92914,3.37649ZM783.67276,548.5979a28.65473,28.65473,0,0,0,9.79207-1.481,17.25334,17.25334,0,0,0,6.63951-4.15575,16.12587,16.12587,0,0,0,3.77339-6.49607,30.86612,30.86612,0,0,0,0-17.00489,16.1489,16.1489,0,0,0-3.77339-6.49608,17.29393,17.29393,0,0,0-6.63951-4.15574,28.69681,28.69681,0,0,0-9.79207-1.48059H768.2921V548.5979Z" transform="translate(-33 -425.25938)" style="fill: #e1b06f"/>
        <path d="M836.55015,562.16336a15.10854,15.10854,0,0,0,3.2003,5.44537,12.603,12.603,0,0,0,4.58561,3.1046,14.6285,14.6285,0,0,0,5.34968,1.00319,15.77748,15.77748,0,0,0,5.77976-1.09867,14.9266,14.9266,0,0,0,5.06323-3.296,16.545,16.545,0,0,0,3.63017-5.49289,19.48134,19.48134,0,0,0,1.38532-7.59474V514.11072a10.8093,10.8093,0,0,0-1.28984-5.30236q-1.28963-2.3397-5.20645-3.39105v-.09591h14.99852v.09591q-3.91833,1.052-5.20645,3.39105a10.80919,10.80919,0,0,0-1.28962,5.30236v40.12351a19.67027,19.67027,0,0,1-1.57628,8.168,16.631,16.631,0,0,1-4.20349,5.77933,17.10376,17.10376,0,0,1-5.97072,3.39147,21.48621,21.48621,0,0,1-13.56546,0,17.89238,17.89238,0,0,1-5.97094-3.29556,16.6107,16.6107,0,0,1-4.251-5.49332,16.95817,16.95817,0,0,1-1.62423-7.59474V514.11072a10.80919,10.80919,0,0,0-1.28962-5.30236q-1.29-2.3397-5.20667-3.39105v-.09591h17.96012v.09591q-3.91833,1.052-5.20645,3.39105a10.80919,10.80919,0,0,0-1.28963,5.30236v40.12351A23.57878,23.57878,0,0,0,836.55015,562.16336Z" transform="translate(-33 -425.25938)" style="fill: #e1b06f"/>
        <path d="M914.26544,505.3214a35.01715,35.01715,0,0,1,11.03417,1.62873,23.72511,23.72511,0,0,1,8.26353,4.54666,19.76417,19.76417,0,0,1,5.1585,7.08437,24.90462,24.90462,0,0,1,0,18.66744,20.21686,20.21686,0,0,1-5.1585,7.13233,23.28461,23.28461,0,0,1-8.26353,4.59589,35.01832,35.01832,0,0,1-11.03417,1.627H898.40717v12.36233a10.98572,10.98572,0,0,0,1.28962,5.32591q1.28963,2.37822,5.20646,3.329v.09548H886.94313V571.621q3.9164-.95373,5.20666-3.34352a11.07391,11.07391,0,0,0,1.28963-5.34989V514.11072a10.80919,10.80919,0,0,0-1.28963-5.30236q-1.28994-2.3397-5.20666-3.39105v-.09591Zm-.47761,43.2765a28.65473,28.65473,0,0,0,9.79207-1.481,17.25334,17.25334,0,0,0,6.63951-4.15575,16.12638,16.12638,0,0,0,3.77361-6.49607,30.86637,30.86637,0,0,0,0-17.00489,16.14942,16.14942,0,0,0-3.77361-6.49608,17.29393,17.29393,0,0,0-6.63951-4.15574,28.69681,28.69681,0,0,0-9.79207-1.48059H898.40717V548.5979Z" transform="translate(-33 -425.25938)" style="fill: #e1b06f"/>
        <path d="M998.04737,553.47l-2.10185,18.91535a2.82206,2.82206,0,0,0-1.28963-.52536,7.86969,7.86969,0,0,0-1.28962-.14343H954.10251V571.621a8.27094,8.27094,0,0,0,4.96754-3.00913,9.61368,9.61368,0,0,0,1.52854-5.68428V514.11072a9.61643,9.61643,0,0,0-1.52854-5.68428,8.26693,8.26693,0,0,0-4.96754-3.00913v-.09591h36.20668a8.71839,8.71839,0,0,0,1.33758-.143,2.87134,2.87134,0,0,0,1.33715-.52536l2.00637,18.91535H994.417a27.53127,27.53127,0,0,0-1.91046-8.64588,13.27459,13.27459,0,0,0-3.43943-4.87205,10.27231,10.27231,0,0,0-4.29875-2.19733,19.73232,19.73232,0,0,0-4.39465-.52536H965.56634v30.188h11.36835a9.60508,9.60508,0,0,0,5.68428-1.52854,8.26477,8.26477,0,0,0,3.00912-4.96754h.09548v14.99852h-.09548a8.27,8.27,0,0,0-3.00912-4.96754,9.61734,9.61734,0,0,0-5.68428-1.52853H965.56634v30.28391h17.86442a19.01976,19.01976,0,0,0,4.34671-.52578,10.02378,10.02378,0,0,0,4.25122-2.24486,14.23171,14.23171,0,0,0,3.48695-4.92,26.54636,26.54636,0,0,0,1.95842-8.64545Z" transform="translate(-33 -425.25938)" style="fill: #e1b06f"/>
        <path d="M1067.30731,571.71652H1048.01l-.19117-.09548q3.15244-1.04557,2.627-3.37649a13.64753,13.64753,0,0,0-2.91365-5.27838l-9.83981-12.36233h-13.85211v12.36233a10.98572,10.98572,0,0,0,1.28962,5.32591q1.28962,2.37822,5.20645,3.329v.09548h-17.96012V571.621q3.91641-.95373,5.20667-3.34352a11.07391,11.07391,0,0,0,1.28962-5.34989V514.11072a10.80919,10.80919,0,0,0-1.28962-5.30236q-1.28994-2.3397-5.20667-3.39105v-.09591h27.32232a35.01715,35.01715,0,0,1,11.03417,1.62873,23.72511,23.72511,0,0,1,8.26353,4.54666,19.764,19.764,0,0,1,5.15849,7.08437,23.14678,23.14678,0,0,1,1.8152,9.33394q0,9.48015-5.8275,15.46265-5.828,5.9825-16.3361,7.03513l9.9355,12.55329a27.67081,27.67081,0,0,0,5.44537,5.27838,20.57412,20.57412,0,0,0,7.92913,3.37649Zm-28.08637-23.11862a28.65469,28.65469,0,0,0,9.79207-1.481,17.25326,17.25326,0,0,0,6.63951-4.15575,16.12627,16.12627,0,0,0,3.77361-6.49607,30.86612,30.86612,0,0,0,0-17.00489,16.14931,16.14931,0,0,0-3.77361-6.49608,17.29385,17.29385,0,0,0-6.63951-4.15574,28.69676,28.69676,0,0,0-9.79207-1.48059h-15.38065V548.5979Z" transform="translate(-33 -425.25938)" style="fill: #e1b06f"/>
        <path d="M1150.44828,541.43261a44.61112,44.61112,0,0,1,6.62452,3.34394,19.21431,19.21431,0,0,1,5.19575,4.63315,10.41151,10.41151,0,0,1,2.09757,6.544,12.90192,12.90192,0,0,1-1.67026,6.35307,17.1122,17.1122,0,0,1-4.67382,5.30193,24.12892,24.12892,0,0,1-7.2976,3.67791,30.654,30.654,0,0,1-9.4429,1.38511,41.41656,41.41656,0,0,1-8.87259-1.00319,37.407,37.407,0,0,1-8.63218-3.00912,28.95562,28.95562,0,0,1-7.20683-5.01549,18.88363,18.88363,0,0,1-4.67938-7.02143l7.06939-6.592a18.50727,18.50727,0,0,0,1.42984,9.55358,18.76028,18.76028,0,0,0,5.19768,6.78252,22.54969,22.54969,0,0,0,7.535,4.01231,28.228,28.228,0,0,0,8.5367,1.33758,23.245,23.245,0,0,0,7.39029-1.09867,18.12675,18.12675,0,0,0,5.62734-2.96159,13.61708,13.61708,0,0,0,3.62439-4.29875,10.61363,10.61363,0,0,0,1.28834-5.01549,9.0404,9.0404,0,0,0-1.52854-5.20646,15.61145,15.61145,0,0,0-3.8693-3.91683,29.71315,29.71315,0,0,0-5.111-2.91364q-2.77192-1.24081-5.1585-2.29281l-12.8971-5.63632q-2.77193-1.24081-5.54085-2.72269a26.73182,26.73182,0,0,1-5.01549-3.43943,15.78368,15.78368,0,0,1-3.63-4.58561,12.80783,12.80783,0,0,1-1.38532-6.0662,14.16753,14.16753,0,0,1,1.81519-7.11692,16.84107,16.84107,0,0,1,4.96754-5.44536,23.60174,23.60174,0,0,1,7.49926-3.43943,35.43324,35.43324,0,0,1,9.40994-1.19415,32.80771,32.80771,0,0,1,16.62275,4.2037,27.64122,27.64122,0,0,1,4.87206,3.48653,33.75077,33.75077,0,0,1,2.86612,2.91407l-4.01231,12.03692q-.38085-10.69785-6.05164-16.19266-5.671-5.49248-14.81934-5.49333a25.87977,25.87977,0,0,0-7.14838.95566,17.09475,17.09475,0,0,0-5.76478,2.81817,14.083,14.083,0,0,0-3.86031,4.48971,12.50366,12.50366,0,0,0-1.42835,6.06663,11.30481,11.30481,0,0,0,3.09733,8.359,23.67636,23.67636,0,0,0,7.57826,5.01549l12.86991,5.73181Q1146.92044,540.00061,1150.44828,541.43261Z" transform="translate(-33 -425.25938)" style="fill: #e1b06f"/>
        <path d="M1214.80663,504.36617a38.02916,38.02916,0,0,1,13.89985,2.43625,30.47914,30.47914,0,0,1,10.7473,6.9739,31.78748,31.78748,0,0,1,6.97391,10.84278,38.032,38.032,0,0,1,2.48377,14.0433,37.37821,37.37821,0,0,1-2.48377,13.89985,31.36662,31.36662,0,0,1-6.97391,10.7473,30.7863,30.7863,0,0,1-10.7473,6.92638,41.01409,41.01409,0,0,1-27.84767,0,30.16024,30.16024,0,0,1-17.72163-17.67368,38.02675,38.02675,0,0,1-2.43582-13.89985,38.69333,38.69333,0,0,1,2.43582-14.0433,31.18367,31.18367,0,0,1,6.92638-10.84278,30.367,30.367,0,0,1,10.79525-6.9739A38.40125,38.40125,0,0,1,1214.80663,504.36617Zm0,67.35035a28.16373,28.16373,0,0,0,11.70252-2.38829,26.00669,26.00669,0,0,0,9.07533-6.735,31.3219,31.3219,0,0,0,5.87524-10.41291,41.125,41.125,0,0,0,2.10185-13.51793,41.87636,41.87636,0,0,0-2.10185-13.66138,31.82133,31.82133,0,0,0-5.87524-10.50838,25.79172,25.79172,0,0,0-9.07533-6.783,29.98261,29.98261,0,0,0-23.453,0,26.35069,26.35069,0,0,0-9.07575,6.783,30.70687,30.70687,0,0,0-5.87524,10.50838,42.70556,42.70556,0,0,0-2.0539,13.66138,41.93767,41.93767,0,0,0,2.0539,13.51793,30.2299,30.2299,0,0,0,5.87524,10.41291,26.57613,26.57613,0,0,0,9.07575,6.735A28.05989,28.05989,0,0,0,1214.80663,571.71652Z" transform="translate(-33 -425.25938)" style="fill: #e1b06f"/>
        <path d="M1290.27621,505.3214a35.01715,35.01715,0,0,1,11.03417,1.62873,23.72511,23.72511,0,0,1,8.26353,4.54666,19.76417,19.76417,0,0,1,5.1585,7.08437,24.90729,24.90729,0,0,1,0,18.66744,20.21686,20.21686,0,0,1-5.1585,7.13233,23.28461,23.28461,0,0,1-8.26353,4.59589,35.01832,35.01832,0,0,1-11.03417,1.627h-15.85827v12.36233a10.98572,10.98572,0,0,0,1.28962,5.32591q1.28962,2.37822,5.20645,3.329v.09548h-17.96012V571.621q3.91641-.95373,5.20688-3.34352a11.07391,11.07391,0,0,0,1.28963-5.34989V514.11072a10.80919,10.80919,0,0,0-1.28963-5.30236q-1.29025-2.3397-5.20688-3.39105v-.09591Zm-.47783,43.2765a28.653,28.653,0,0,0,9.79207-1.481,17.25509,17.25509,0,0,0,6.63994-4.15575,16.12838,16.12838,0,0,0,3.77339-6.49607,30.86612,30.86612,0,0,0,0-17.00489,16.15143,16.15143,0,0,0-3.77339-6.49608,17.29569,17.29569,0,0,0-6.63994-4.15574,28.695,28.695,0,0,0-9.79207-1.48059h-15.38044V548.5979Z" transform="translate(-33 -425.25938)" style="fill: #e1b06f"/>
        <path d="M1378.45236,505.3214v.09591q-3.91833,1.052-5.254,3.39105a10.4903,10.4903,0,0,0-1.33758,5.30236v57.6058h-2.00636l-31.62107-56.36413v47.57524a11.03826,11.03826,0,0,0,1.29434,5.34989q1.29348,2.3885,5.22443,3.34352v.09548h-15.02121V571.621q3.91575-.95373,5.20645-3.34352a11.07391,11.07391,0,0,0,1.28963-5.34989V514.11072a10.80919,10.80919,0,0,0-1.28963-5.30236q-1.28963-2.3397-5.20645-3.39105v-.09591h8.50244l31.62107,56.45961V514.11072a10.90542,10.90542,0,0,0-1.27593-5.30236q-1.27677-2.3397-5.14693-3.39105v-.09591Z" transform="translate(-33 -425.25938)" style="fill: #e1b06f"/>
        <path d="M1426.219,504.36617a38.02754,38.02754,0,0,1,13.89986,2.43625,30.47528,30.47528,0,0,1,10.7473,6.9739,31.78748,31.78748,0,0,1,6.97391,10.84278,38.032,38.032,0,0,1,2.48377,14.0433,37.37821,37.37821,0,0,1-2.48377,13.89985,31.36662,31.36662,0,0,1-6.97391,10.7473,30.78237,30.78237,0,0,1-10.7473,6.92638,41.01409,41.01409,0,0,1-27.84767,0,30.158,30.158,0,0,1-17.7212-17.67368,38.01777,38.01777,0,0,1-2.43625-13.89985,38.68418,38.68418,0,0,1,2.43625-14.0433,31.17651,31.17651,0,0,1,6.926-10.84278,30.37072,30.37072,0,0,1,10.79525-6.9739A38.40123,38.40123,0,0,1,1426.219,504.36617Zm0,67.35035a28.16239,28.16239,0,0,0,11.70253-2.38829,26.00827,26.00827,0,0,0,9.07576-6.735,31.33688,31.33688,0,0,0,5.87524-10.41291,41.12516,41.12516,0,0,0,2.10142-13.51793,41.87657,41.87657,0,0,0-2.10142-13.66138,31.83661,31.83661,0,0,0-5.87524-10.50838,25.79327,25.79327,0,0,0-9.07576-6.783,29.98261,29.98261,0,0,0-23.453,0,26.35472,26.35472,0,0,0-9.07575,6.783,30.70706,30.70706,0,0,0-5.87525,10.50838,42.7178,42.7178,0,0,0-2.05389,13.66138,41.94971,41.94971,0,0,0,2.05389,13.51793,30.23008,30.23008,0,0,0,5.87525,10.41291,26.58024,26.58024,0,0,0,9.07575,6.735A28.06268,28.06268,0,0,0,1426.219,571.71652Z" transform="translate(-33 -425.25938)" style="fill: #e1b06f"/>
        <path d="M1526.23854,571.71652l-14.04329-57.6058a14.07692,14.07692,0,0,0-2.6272-5.30236q-1.86251-2.3397-6.16169-3.39105v-.09591H1521.462v.09591q-3.63189,1.052-4.34671,3.39105a9.67278,9.67278,0,0,0,.048,5.30236l12.89667,52.82922,12.8971-52.82922a9.68864,9.68864,0,0,0,.04753-5.30236q-.7161-2.3397-4.3467-3.39105v-.09591h14.99852v.09591q-4.29854,1.052-6.16168,3.39105a14.05815,14.05815,0,0,0-2.62721,5.30236l-14.04329,57.6058Z" transform="translate(-33 -425.25938)" style="fill: #e1b06f"/>
        <path d="M1596.83607,562.92763a14.08464,14.08464,0,0,0,2.67516,5.34989,10.49511,10.49511,0,0,0,6.11415,3.34352v.09548h-18.0556V571.621q3.62933-1.05008,4.3467-3.39147a9.68715,9.68715,0,0,0-.048-5.30194l-1.43306-5.92319h-22.83218l-1.52854,5.92319a9.67083,9.67083,0,0,0-.04752,5.30194q.7161,2.34225,4.3467,3.39147v.09548h-14.99852V571.621q4.29853-1.05008,6.16168-3.39147a14.0594,14.0594,0,0,0,2.6272-5.30194l12.22789-49.86805q.76362-5.732-6.59156-7.64227v-.09591h12.99258Zm-6.878-7.92913L1578.97143,510.098l-10.89031,44.90052Z" transform="translate(-33 -425.25938)" style="fill: #e1b06f"/>
        <path d="M1653.23017,541.43261a44.61172,44.61172,0,0,1,6.62453,3.34394,19.21645,19.21645,0,0,1,5.19617,4.63315,10.41374,10.41374,0,0,1,2.09714,6.544,12.89734,12.89734,0,0,1-1.67026,6.35307,17.11618,17.11618,0,0,1-4.67339,5.30193,24.13651,24.13651,0,0,1-7.298,3.67791,30.64961,30.64961,0,0,1-9.44269,1.38511,41.41851,41.41851,0,0,1-8.8728-1.00319,37.40708,37.40708,0,0,1-8.63175-3.00912,28.94773,28.94773,0,0,1-7.20683-5.01549,18.88724,18.88724,0,0,1-4.67981-7.02143l7.06939-6.592a18.5117,18.5117,0,0,0,1.43006,9.55358,18.76206,18.76206,0,0,0,5.19746,6.78252,22.55267,22.55267,0,0,0,7.53523,4.01231,28.229,28.229,0,0,0,8.53669,1.33758,23.24732,23.24732,0,0,0,7.39051-1.09867,18.13643,18.13643,0,0,0,5.62734-2.96159,13.62833,13.62833,0,0,0,3.62439-4.29875,10.61309,10.61309,0,0,0,1.28791-5.01549,9.0372,9.0372,0,0,0-1.52854-5.20646,15.61684,15.61684,0,0,0-3.86887-3.91683,29.74562,29.74562,0,0,0-5.111-2.91364q-2.77192-1.24081-5.15893-2.29281l-12.89667-5.63632q-2.77193-1.24081-5.54085-2.72269a26.725,26.725,0,0,1-5.01549-3.43943,15.78862,15.78862,0,0,1-3.63039-4.58561,12.80776,12.80776,0,0,1-1.3851-6.0662,14.17169,14.17169,0,0,1,1.815-7.11692,16.84232,16.84232,0,0,1,4.968-5.44536,23.59493,23.59493,0,0,1,7.49883-3.43943,35.436,35.436,0,0,1,9.41015-1.19415,32.80436,32.80436,0,0,1,16.62254,4.2037,27.64122,27.64122,0,0,1,4.87206,3.48653,33.68666,33.68666,0,0,1,2.86612,2.91407l-4.01231,12.03692q-.38085-10.69785-6.05121-16.19266-5.67165-5.49248-14.81955-5.49333a25.88467,25.88467,0,0,0-7.1486.95566,17.10259,17.10259,0,0,0-5.76478,2.81817,14.0909,14.0909,0,0,0-3.86031,4.48971,12.50366,12.50366,0,0,0-1.42835,6.06663,11.30481,11.30481,0,0,0,3.09733,8.359,23.67734,23.67734,0,0,0,7.57847,5.01549l12.87013,5.73181Q1649.70212,540.00061,1653.23017,541.43261Z" transform="translate(-33 -425.25938)" style="fill: #e1b06f"/>
        <path d="M1738.70077,523.56839h-.57289a26.56269,26.56269,0,0,0-1.95841-8.64588,13.73115,13.73115,0,0,0-3.48695-4.87205,10.27483,10.27483,0,0,0-4.29875-2.19733,19.73384,19.73384,0,0,0-4.39466-.52536h-11.36856v55.59986a9.60443,9.60443,0,0,0,1.52854,5.68428,8.26835,8.26835,0,0,0,4.96754,3.00913v.09548H1701.061V571.621a8.49489,8.49489,0,0,0,5.01549-3.00913,9.39023,9.39023,0,0,0,1.57649-5.68428V507.32777H1696.1894a19.7221,19.7221,0,0,0-4.39466.52536,10.27231,10.27231,0,0,0-4.29875,2.19733,13.71007,13.71007,0,0,0-3.48695,4.87205,25.132,25.132,0,0,0-1.86336,8.64588h-.57288l2.00636-18.91535a2.86276,2.86276,0,0,0,1.33715.52536,8.69507,8.69507,0,0,0,1.33758.143h47.76621a7.86532,7.86532,0,0,0,1.28962-.143,2.82206,2.82206,0,0,0,1.28963-.52536Z" transform="translate(-33 -425.25938)" style="fill: #e1b06f"/>
        <path d="M1806.338,571.71652h-19.2977l-.191-.09548q3.15213-1.04557,2.6272-3.37649a13.65211,13.65211,0,0,0-2.91407-5.27838l-9.8396-12.36233h-13.85233v12.36233a10.98573,10.98573,0,0,0,1.28963,5.32591q1.28963,2.37822,5.20645,3.329v.09548h-17.95969V571.621q3.91639-.95373,5.20645-3.34352a11.07391,11.07391,0,0,0,1.28962-5.34989V514.11072a10.80919,10.80919,0,0,0-1.28962-5.30236q-1.28963-2.3397-5.20645-3.39105v-.09591h27.32188a35.01711,35.01711,0,0,1,11.03417,1.62873,23.72493,23.72493,0,0,1,8.26353,4.54666,19.77013,19.77013,0,0,1,5.15893,7.08437,23.14674,23.14674,0,0,1,1.815,9.33394q0,9.48015-5.82772,15.46265t-16.33567,7.03513l9.9355,12.55329a27.67081,27.67081,0,0,0,5.44537,5.27838,20.572,20.572,0,0,0,7.92871,3.37649Zm-28.08659-23.11862a28.65465,28.65465,0,0,0,9.79207-1.481,17.24995,17.24995,0,0,0,6.63951-4.15575,16.12919,16.12919,0,0,0,3.77383-6.49607,30.87706,30.87706,0,0,0,0-17.00489,16.15223,16.15223,0,0,0-3.77383-6.49608,17.29052,17.29052,0,0,0-6.63951-4.15574,28.69672,28.69672,0,0,0-9.79207-1.48059h-15.38087V548.5979Z" transform="translate(-33 -425.25938)" style="fill: #e1b06f"/>
        <path d="M1858.21111,562.92763a14.08389,14.08389,0,0,0,2.67473,5.34989A10.49652,10.49652,0,0,0,1867,571.621v.09548h-18.0556V571.621q3.62931-1.05008,4.3467-3.39147a9.69109,9.69109,0,0,0-.04752-5.30194l-1.43349-5.92319h-22.83218l-1.52854,5.92319a9.67073,9.67073,0,0,0-.04752,5.30194q.7161,2.34225,4.3467,3.39147v.09548H1816.75V571.621q4.29854-1.05008,6.16168-3.39147a14.05955,14.05955,0,0,0,2.6272-5.30194l12.22832-49.86805q.763-5.732-6.592-7.64227v-.09591h12.99215Zm-6.87842-7.92913L1840.34647,510.098l-10.89073,44.90052Z" transform="translate(-33 -425.25938)" style="fill: #e1b06f"/>
      </g>
    </g>
  </g>
</svg>
