<svg xmlns="http://www.w3.org/2000/svg" viewBox="0 0 4184.66 732.77"><defs><style>.cls-1{fill:#e2b06f;}.cls-2{fill:#e69b4d;}</style></defs><g id="Layer_2" data-name="Layer 2"><g id="Layer_2-2" data-name="Layer 2"><path class="cls-1" d="M0,0,99.73,1.33,149.6,2l24.93.34,6.24.08,7.27.25c1.23,0,2.45.08,3.68.16l3.66.31c2.44.23,4.89.38,7.32.71a208.65,208.65,0,0,1,28.88,5.62,197.79,197.79,0,0,1,53.55,23.62,204.11,204.11,0,0,1,23.49,17.41,197.94,197.94,0,0,1,38,44,188.76,188.76,0,0,1,13.75,25.66l1.46,3.33c.49,1.11,1,2.22,1.39,3.37l2.59,6.8c.82,2.28,1.53,4.6,2.29,6.9.37,1.16.77,2.3,1.1,3.47l1,3.51.95,3.51c.33,1.16.63,2.34.87,3.52l1.55,7.1c.48,2.38.83,4.77,1.24,7.16l.58,3.58.43,3.6c.25,2.4.6,4.8.76,7.21l.47,7.22c.09,1.21.12,2.41.13,3.62l0,3.61.05,3.61v1.67l0,1.56-.66,49.86-1.33,99.74-1.33,99.73-.33,24.93-.17,12.47,0,3.11v1.19l0,.56-.09,2.24a80.86,80.86,0,0,1-.92,9,71.57,71.57,0,0,1-15,33.23A73.21,73.21,0,0,1,293.1,567a70.9,70.9,0,0,1-17.71-4.33c-1.4-.59-2.84-1.11-4.2-1.79s-2.73-1.35-4.08-2-2.6-1.54-3.89-2.33-2.48-1.7-3.72-2.55c-.6-.45-1.22-.88-1.81-1.33L256,551.18c-1.11-1-2.31-1.89-3.33-2.93l-3.13-3.09c-1-1-1.76-1.94-2.61-2.91l-2.52-2.93c-.85-1-1.58-2-2.37-3l-2.32-3.07c-.73-1-1.43-2.12-2.14-3.18a117.65,117.65,0,0,1-13.4-27.32,112.4,112.4,0,0,1-5.85-29.94,105.53,105.53,0,0,1,2.77-30.84l1-3.8c.37-1.26.8-2.52,1.21-3.77s.82-2.52,1.28-3.75L226,427c.53-1.2,1-2.44,1.58-3.6l1.76-3.49c1.13-2.37,2.54-4.55,3.86-6.78a102.35,102.35,0,0,1,20.07-23.47,98.74,98.74,0,0,1,26.4-16.36l3.66-1.47c1.21-.49,2.5-.84,3.75-1.26l3.79-1.18,3.88-.91c1.3-.28,2.58-.62,3.9-.83l4-.58a75.74,75.74,0,0,1,7.9-.71A96.67,96.67,0,0,1,341.12,370a116.21,116.21,0,0,1,27.21,11.54,141.55,141.55,0,0,1,23.23,16.86c1.75,1.6,3.49,3.23,5.18,4.87s3.31,3.28,4.85,5,3.15,3.39,4.62,5.14l2.24,2.61,2.16,2.65a244.54,244.54,0,0,1,15.62,21.77c4.76,7.38,9.16,14.8,13.36,22.17s8.22,14.63,12.27,21.84S460,498.83,464.08,506c8.2,14.27,16.56,28.37,25.3,42.13,17.47,27.5,36.51,53.72,58.48,77A317.68,317.68,0,0,0,583,657.35a273.89,273.89,0,0,0,39.65,26,226.56,226.56,0,0,0,43.52,17.94,188.08,188.08,0,0,0,46.07,7.52l-.44,23.92a212.87,212.87,0,0,1-52.32-7.09,251.85,251.85,0,0,1-49-18.68c-31.22-15.69-59.22-37-83.58-61.53s-45.25-51.8-64.17-79.9c-9.47-14.06-18.45-28.33-27.19-42.65q-6.56-10.75-13-21.5l-12.73-21.31c-8.45-13.89-17-27.15-26.84-38.58l-1.83-2.13-1.88-2.07c-1.24-1.4-2.54-2.71-3.82-4s-2.63-2.55-3.94-3.84-2.65-2.39-4-3.56A104.35,104.35,0,0,0,350.12,414a79,79,0,0,0-18.77-7.4,58.7,58.7,0,0,0-18.76-1.76,38.51,38.51,0,0,0-4.49.55l-2.2.36c-.73.13-1.45.38-2.17.55l-2.18.55-2.14.76c-.71.27-1.44.45-2.14.77l-2.1.93a59.81,59.81,0,0,0-15.51,10.24,62.72,62.72,0,0,0-11.81,14.64c-.73,1.37-1.6,2.68-2.19,4.11l-1,2.1c-.36.68-.55,1.43-.85,2.13l-.83,2.14c-.25.72-.43,1.46-.65,2.18l-.66,2.17-.48,2.27a67.44,67.44,0,0,0,3.1,37.42,74.94,74.94,0,0,0,9,17.07c.47.65.91,1.31,1.39,2l1.5,1.85c.51.61,1,1.28,1.51,1.84l1.61,1.75c.52.57,1.06,1.21,1.58,1.69s.91.82,1.35,1.24a16.13,16.13,0,0,0,1.39,1.14l.69.56c.24.17.49.31.73.47.5.3.94.69,1.45.94s1,.54,1.48.83,1,.45,1.52.69,1,.37,1.56.59a26.33,26.33,0,0,0,6.48,1.36,28,28,0,0,0,13.41-2.42,27.32,27.32,0,0,0,10.57-8.33c.31-.46.67-.87,1-1.33s.55-.92.85-1.37.48-1,.74-1.43.41-1,.65-1.47a27.89,27.89,0,0,0,1.68-6.29,32.07,32.07,0,0,0,.21-3.43l0-.87v-1.38l0-3.11-.17-12.47-.33-24.93-1.33-99.73-1.33-99.74-.66-49.86,0-1.56v-.78l0-.67-.11-2.62-.11-2.62c0-.87-.06-1.74-.16-2.61l-.48-5.2c-.16-1.74-.48-3.45-.7-5.17l-.37-2.59-.49-2.55c-.35-1.7-.63-3.42-1-5.11L318,168c-.19-.84-.43-1.68-.69-2.5l-.75-2.49-.75-2.49c-.25-.82-.57-1.63-.86-2.45-.59-1.62-1.13-3.27-1.76-4.88l-2-4.79c-.31-.81-.68-1.59-1.06-2.37L309,143.66a131.44,131.44,0,0,0-10.27-18A140.51,140.51,0,0,0,271,95.23a139.13,139.13,0,0,0-35.22-21A150.06,150.06,0,0,0,216.29,68a149.33,149.33,0,0,0-20.13-3.34c-1.7-.2-3.41-.22-5.1-.35l-2.55-.16c-.85,0-1.71,0-2.56,0l-5.18,0-6.24.08-24.93.34-49.87.66L0,66.46Z"/><path class="cls-1" d="M1424,66.46l-99.73-1.33-49.87-.66-24.93-.34-6.23-.08-5.19,0c-.85,0-1.7,0-2.56,0l-2.54.16c-1.7.13-3.41.15-5.1.35A137.6,137.6,0,0,0,1170,83.43a146.57,146.57,0,0,0-16.87,11.8,140.76,140.76,0,0,0-27.79,30.45,131.44,131.44,0,0,0-10.27,18l-1.11,2.34c-.38.78-.75,1.56-1.06,2.37l-2,4.79c-.63,1.61-1.16,3.26-1.76,4.88-.28.82-.61,1.63-.86,2.45l-.74,2.49-.76,2.49c-.26.82-.5,1.66-.69,2.5l-1.25,5.05c-.39,1.69-.67,3.41-1,5.11l-.5,2.55-.36,2.59c-.23,1.72-.55,3.43-.71,5.17l-.47,5.2c-.11.87-.14,1.74-.17,2.61l-.1,2.62-.12,2.62,0,.67v.78l0,1.56-.66,49.86-1.33,99.74L1098,453.83l-.33,24.93-.17,12.47,0,3.11v1.38l0,.87a32.07,32.07,0,0,0,.21,3.43,27.89,27.89,0,0,0,1.68,6.29c.24.48.38,1,.65,1.47s.5,1,.74,1.43.58.9.86,1.37.65.87,1,1.33a27.28,27.28,0,0,0,10.58,8.33,28,28,0,0,0,13.4,2.42,26.41,26.41,0,0,0,6.49-1.36c.5-.22,1-.33,1.55-.59s1-.47,1.53-.69,1-.57,1.47-.83,1-.64,1.45-.94c.24-.16.49-.3.73-.47l.69-.56a14.74,14.74,0,0,0,1.39-1.14c.44-.42.89-.83,1.36-1.24s1-1.12,1.58-1.69l1.6-1.75c.55-.56,1-1.23,1.51-1.84l1.5-1.85c.48-.65.92-1.31,1.39-2a74.55,74.55,0,0,0,9-17.07,67.44,67.44,0,0,0,3.1-37.42l-.48-2.27-.66-2.17c-.22-.72-.4-1.46-.65-2.18l-.83-2.14c-.29-.7-.49-1.45-.85-2.13l-1-2.1c-.59-1.43-1.46-2.74-2.19-4.11a62.68,62.68,0,0,0-11.8-14.64,59.86,59.86,0,0,0-15.52-10.24l-2.1-.93c-.69-.32-1.43-.5-2.14-.77l-2.14-.76-2.17-.55c-.73-.17-1.45-.42-2.18-.55l-2.2-.36a38.25,38.25,0,0,0-4.49-.55,58.73,58.73,0,0,0-18.76,1.76,79,79,0,0,0-18.77,7.4,105.18,105.18,0,0,0-17.38,11.93c-1.35,1.17-2.67,2.34-4,3.56s-2.67,2.49-3.93,3.84-2.59,2.63-3.82,4l-1.88,2.07-1.84,2.13c-9.79,11.43-18.38,24.69-26.84,38.58l-12.72,21.31q-6.42,10.74-13,21.5c-8.75,14.32-17.73,28.59-27.19,42.65-18.92,28.1-39.83,55.42-64.18,79.9S844.82,691.31,813.61,707a252.19,252.19,0,0,1-49.05,18.68,212.87,212.87,0,0,1-52.32,7.09l-.44-23.92a188.23,188.23,0,0,0,46.08-7.52,226.73,226.73,0,0,0,43.51-17.94,273.89,273.89,0,0,0,39.65-26,317.68,317.68,0,0,0,35.14-32.23c22-23.29,41-49.51,58.48-77,8.74-13.76,17.1-27.86,25.3-42.13q6.15-10.73,12.22-21.55c4.05-7.21,8.07-14.47,12.27-21.84s8.6-14.79,13.36-22.17a246.58,246.58,0,0,1,15.62-21.77l2.16-2.65,2.24-2.61c1.48-1.75,3-3.44,4.62-5.14s3.24-3.33,4.86-5,3.43-3.27,5.18-4.87a141.46,141.46,0,0,1,23.22-16.86A116.21,116.21,0,0,1,1082.92,370a96.67,96.67,0,0,1,30.59-3.66,75.74,75.74,0,0,1,7.9.71l4,.58c1.31.21,2.6.55,3.9.83l3.88.91,3.78,1.18c1.25.42,2.54.77,3.76,1.26l3.65,1.47a99,99,0,0,1,26.41,16.36,102.55,102.55,0,0,1,20.06,23.47c1.32,2.23,2.74,4.41,3.86,6.78l1.76,3.49c.61,1.16,1,2.4,1.58,3.6l1.51,3.65c.46,1.23.85,2.49,1.27,3.75s.84,2.51,1.22,3.77l1,3.8a105.53,105.53,0,0,1,2.77,30.84,112.4,112.4,0,0,1-5.85,29.94,117.65,117.65,0,0,1-13.4,27.32c-.71,1.06-1.41,2.14-2.14,3.18l-2.32,3.07c-.79,1-1.52,2.07-2.37,3l-2.51,2.93c-.86,1-1.65,1.93-2.62,2.91l-3.13,3.09c-1,1-2.21,2-3.33,2.93l-1.72,1.42c-.59.45-1.2.88-1.81,1.33-1.23.85-2.41,1.78-3.72,2.55s-2.58,1.56-3.89,2.33-2.71,1.37-4.07,2-2.8,1.2-4.21,1.79a70.9,70.9,0,0,1-17.71,4.33,73.21,73.21,0,0,1-64.21-26.43,71.46,71.46,0,0,1-15-33.23,76.34,76.34,0,0,1-.92-9l-.1-2.24,0-.56v-1.19l0-3.11-.17-12.47-.33-24.93-1.33-99.73-1.33-99.74-.66-49.86,0-1.56v-1.67l0-3.61.05-3.61c0-1.21,0-2.41.13-3.62l.47-7.22c.16-2.41.51-4.81.77-7.21l.42-3.6.58-3.58c.41-2.39.76-4.78,1.24-7.16l1.55-7.1c.24-1.18.55-2.36.87-3.52l.95-3.51,1-3.51c.33-1.17.74-2.31,1.1-3.47.76-2.3,1.47-4.62,2.29-6.9l2.6-6.8c.41-1.15.89-2.26,1.38-3.37l1.46-3.33a188.76,188.76,0,0,1,13.75-25.66,198.45,198.45,0,0,1,38-44,204.11,204.11,0,0,1,23.49-17.41,197.67,197.67,0,0,1,82.43-29.24c2.43-.33,4.88-.48,7.32-.71l3.67-.31c1.22-.08,2.44-.11,3.67-.16l7.28-.25,6.23-.08L1274.44,2l49.87-.66L1424,0Z"/><path class="cls-2" d="M803.26,371.56l-2.88-.11c-.19-3-.52-6-1-8.89l2.76-.76a2.09,2.09,0,0,0-.8-4.1l-2.83.33a85.93,85.93,0,0,0-2.36-8.64l2.59-1.16a2.1,2.1,0,0,0-1.42-3.94l-2.72.75c-1.09-2.8-2.31-5.52-3.66-8.18l2.37-1.53a2.1,2.1,0,0,0-2-3.67l-2.57,1.15c-1.5-2.59-3.13-5.11-4.87-7.53l2.1-1.87a2.09,2.09,0,0,0-2.53-3.32l-2.36,1.52q-2.82-3.5-6-6.7l1.78-2.16a2.1,2.1,0,0,0-3-2.9l-2.08,1.86a88.36,88.36,0,0,0-6.92-5.73l1.42-2.38a2.1,2.1,0,0,0-3.42-2.4l-1.76,2.13a85.29,85.29,0,0,0-7.72-4.59l1-2.56a2.1,2.1,0,0,0-3.75-1.86l-1.41,2.37a87.8,87.8,0,0,0-8.33-3.36l.63-2.68a2.1,2.1,0,0,0-4-1.26l-1,2.55c-2.87-.82-5.78-1.5-8.75-2l.21-2.75a2.1,2.1,0,0,0-4.13-.64l-.63,2.69a88,88,0,0,0-9-.67l-.21-2.77a2.1,2.1,0,0,0-4.18,0l-.21,2.77a88.25,88.25,0,0,0-9,.67l-.62-2.69a2.1,2.1,0,0,0-4.14.64l.22,2.75q-4.46.81-8.75,2l-1-2.55a2.1,2.1,0,0,0-4,1.26l.63,2.68a87.29,87.29,0,0,0-8.33,3.36l-1.41-2.37a2.09,2.09,0,0,0-3.74,1.86l1,2.56a86.7,86.7,0,0,0-7.72,4.59l-1.76-2.13a2.1,2.1,0,0,0-3.42,2.4l1.42,2.38a88.36,88.36,0,0,0-6.92,5.73l-2.08-1.86a2.1,2.1,0,0,0-3,2.9l1.78,2.16q-3.15,3.19-6,6.7l-2.35-1.52a2.1,2.1,0,0,0-2.54,3.32l2.1,1.87a88.64,88.64,0,0,0-4.86,7.53l-2.58-1.15a2.09,2.09,0,0,0-2,3.67l2.37,1.53a85.65,85.65,0,0,0-3.66,8.18l-2.73-.75a2.1,2.1,0,0,0-1.42,3.94l2.59,1.16a85.93,85.93,0,0,0-2.36,8.64l-2.83-.33a2.09,2.09,0,0,0-.79,4.1l2.75.76c-.48,2.92-.81,5.89-1,8.89l-2.88.11a2.1,2.1,0,0,0-.16,4.18l2.87.33c0,.32,0,.63,0,.95,0,2.69.14,5.35.38,8l-2.85.56a2.09,2.09,0,0,0,.47,4.15l2.9-.11c.43,3,1,5.9,1.71,8.77l-2.74,1a2.1,2.1,0,0,0,1.11,4l2.85-.55a86.68,86.68,0,0,0,3,8.41l-2.56,1.39a2.09,2.09,0,0,0,1.71,3.81l2.75-1a87.2,87.2,0,0,0,4.29,7.83l-2.34,1.78a2.1,2.1,0,0,0,2.27,3.51l2.6-1.41q2.54,3.68,5.42,7.08l-2.07,2.15a2.1,2.1,0,0,0,2.79,3.12l2.37-1.82q3.06,3.26,6.43,6.17l-1.73,2.46a2.1,2.1,0,0,0,3.23,2.66l2.08-2.17a88.39,88.39,0,0,0,7.29,5.13l-1.34,2.69a2.1,2.1,0,0,0,3.6,2.14l1.72-2.46a88.36,88.36,0,0,0,8,4l-.9,2.85a2.1,2.1,0,0,0,3.88,1.57l1.32-2.68c2.77,1,5.61,1.93,8.5,2.69l-.46,3a2.1,2.1,0,0,0,4.07.95l.9-2.85a88.24,88.24,0,0,0,8.81,1.35v3a2.1,2.1,0,0,0,4.17.32l.46-3c1.47.07,3,.11,4.45.11s3,0,4.45-.11l.46,3a2.1,2.1,0,0,0,4.17-.32v-3a88.24,88.24,0,0,0,8.81-1.35l.9,2.85a2.1,2.1,0,0,0,4.07-.95l-.46-3q4.35-1.14,8.5-2.69l1.33,2.68a2.09,2.09,0,0,0,3.87-1.57l-.9-2.85a87.07,87.07,0,0,0,8-4l1.73,2.46a2.1,2.1,0,0,0,3.59-2.14L759.19,452q3.76-2.38,7.28-5.13l2.08,2.17a2.1,2.1,0,0,0,3.23-2.66l-1.73-2.46a87.09,87.09,0,0,0,6.43-6.17l2.38,1.82a2.1,2.1,0,0,0,2.78-3.12l-2.07-2.15a88.4,88.4,0,0,0,5.42-7.08l2.6,1.41a2.1,2.1,0,0,0,2.28-3.51l-2.34-1.78c1.55-2.53,3-5.14,4.29-7.83l2.74,1a2.09,2.09,0,0,0,1.71-3.81l-2.56-1.39a86.68,86.68,0,0,0,3-8.41l2.85.55a2.1,2.1,0,0,0,1.11-4l-2.74-1a87.66,87.66,0,0,0,1.71-8.77l2.9.11a2.09,2.09,0,0,0,.48-4.15L800.2,385c.23-2.63.37-5.29.37-8,0-.32,0-.63,0-.95l2.87-.33A2.1,2.1,0,0,0,803.26,371.56Z"/><path class="cls-1" d="M1777.85,333h-44l-.43-.21q7.18-2.39,6-7.71t-6.65-12l-22.44-28.2h-31.6V313a25,25,0,0,0,3,12.14q2.94,5.43,11.87,7.6V333h-41v-.21q8.93-2.17,11.87-7.63a25.27,25.27,0,0,0,2.94-12.2V201.56a24.65,24.65,0,0,0-2.94-12.09q-2.94-5.34-11.87-7.73v-.22h62.31a80,80,0,0,1,25.17,3.71,54.23,54.23,0,0,1,18.85,10.37,45.26,45.26,0,0,1,11.77,16.16,52.92,52.92,0,0,1,4.14,21.29q0,21.63-13.3,35.27t-37.26,16L1746.91,313a62.83,62.83,0,0,0,12.42,12,46.76,46.76,0,0,0,18.08,7.71Zm-64.06-52.73q13.07,0,22.33-3.37a39.32,39.32,0,0,0,15.14-9.48,36.89,36.89,0,0,0,8.61-14.82,70.47,70.47,0,0,0,0-38.78,36.89,36.89,0,0,0-8.61-14.82,39.56,39.56,0,0,0-15.14-9.48q-9.27-3.37-22.33-3.38H1678.7v94.13Z"/><path class="cls-1" d="M1834.39,311.16a34.34,34.34,0,0,0,7.3,12.42,28.8,28.8,0,0,0,10.46,7.09,33.43,33.43,0,0,0,12.2,2.28,36,36,0,0,0,13.18-2.5,34,34,0,0,0,11.55-7.52,37.83,37.83,0,0,0,8.28-12.53,44.48,44.48,0,0,0,3.16-17.32V201.56a24.65,24.65,0,0,0-2.94-12.09q-2.94-5.34-11.88-7.73v-.22h34.21v.22q-8.94,2.4-11.87,7.73a24.65,24.65,0,0,0-2.94,12.09v91.52a44.81,44.81,0,0,1-3.6,18.63,37.87,37.87,0,0,1-9.59,13.18,38.88,38.88,0,0,1-13.62,7.74,49.11,49.11,0,0,1-30.94,0,40.89,40.89,0,0,1-13.61-7.52,37.9,37.9,0,0,1-9.7-12.53,38.68,38.68,0,0,1-3.7-17.32v-93.7a24.65,24.65,0,0,0-2.95-12.09q-2.94-5.34-11.87-7.73v-.22h41v.22q-8.94,2.4-11.87,7.73a24.65,24.65,0,0,0-2.94,12.09v91.52A53.71,53.71,0,0,0,1834.39,311.16Z"/><path class="cls-1" d="M2011.64,181.52a80,80,0,0,1,25.17,3.71,54.23,54.23,0,0,1,18.85,10.37,45.12,45.12,0,0,1,11.76,16.16,56.81,56.81,0,0,1,0,42.58,46.23,46.23,0,0,1-11.76,16.27,53.29,53.29,0,0,1-18.85,10.48,80,80,0,0,1-25.17,3.71h-36.17V313a24.93,24.93,0,0,0,3,12.14q2.94,5.43,11.87,7.6V333h-41v-.21q8.93-2.17,11.87-7.63a25.27,25.27,0,0,0,2.94-12.2V201.56a24.65,24.65,0,0,0-2.94-12.09q-2.94-5.34-11.87-7.73v-.22Zm-1.08,98.7q13.07,0,22.33-3.37a39.32,39.32,0,0,0,15.14-9.48,36.89,36.89,0,0,0,8.61-14.82,70.47,70.47,0,0,0,0-38.78A36.89,36.89,0,0,0,2048,199a39.56,39.56,0,0,0-15.14-9.48q-9.27-3.37-22.33-3.38h-35.09v94.13Z"/><path class="cls-1" d="M2202.74,291.34l-4.8,43.14a6.5,6.5,0,0,0-2.94-1.2,17.85,17.85,0,0,0-2.94-.33h-89.55v-.21q7.84-2,11.33-6.87t3.48-13V201.56q0-8.06-3.48-13t-11.33-6.86v-.22h82.58a19.79,19.79,0,0,0,3-.33,6.53,6.53,0,0,0,3.05-1.2l4.57,43.15h-1.3q-1.1-12.42-4.36-19.72a30.36,30.36,0,0,0-7.85-11.12,23.39,23.39,0,0,0-9.8-5,45.44,45.44,0,0,0-10-1.2h-33.78V255h25.93q8.05,0,13-3.49t6.86-11.33h.22v34.21h-.22q-2-7.84-6.86-11.33t-13-3.49h-25.93V328.6h40.75a43.38,43.38,0,0,0,9.91-1.2,23,23,0,0,0,9.7-5.12,32.55,32.55,0,0,0,7.95-11.22q3.38-7.31,4.47-19.72Z"/><path class="cls-1" d="M2360.71,333h-44l-.43-.21q7.18-2.39,6-7.71t-6.65-12l-22.44-28.2h-31.59V313a25,25,0,0,0,2.94,12.14q2.94,5.43,11.87,7.6V333h-41v-.21q8.92-2.17,11.87-7.63a25.27,25.27,0,0,0,2.94-12.2V201.56a24.65,24.65,0,0,0-2.94-12.09q-2.94-5.34-11.87-7.73v-.22h62.32a80,80,0,0,1,25.16,3.71,54.23,54.23,0,0,1,18.85,10.37,45.26,45.26,0,0,1,11.77,16.16,52.92,52.92,0,0,1,4.14,21.29q0,21.63-13.3,35.27t-37.26,16L2329.77,313a62.83,62.83,0,0,0,12.42,12,46.76,46.76,0,0,0,18.08,7.71Zm-64.06-52.73q13.07,0,22.33-3.37a39.32,39.32,0,0,0,15.14-9.48,36.78,36.78,0,0,0,8.61-14.82,70.47,70.47,0,0,0,0-38.78,36.78,36.78,0,0,0-8.61-14.82,39.56,39.56,0,0,0-15.14-9.48q-9.27-3.37-22.33-3.38h-35.08v94.13Z"/><path class="cls-1" d="M2550.34,263.88a101.76,101.76,0,0,1,15.11,7.63,43.91,43.91,0,0,1,11.85,10.57,23.77,23.77,0,0,1,4.78,14.92,29.39,29.39,0,0,1-3.81,14.49,38.89,38.89,0,0,1-10.66,12.09A54.92,54.92,0,0,1,2551,332a69.75,69.75,0,0,1-21.54,3.16,94.19,94.19,0,0,1-20.24-2.29A85.16,85.16,0,0,1,2489.5,326a65.92,65.92,0,0,1-16.43-11.44,42.94,42.94,0,0,1-10.68-16l16.13-15q-1.09,12.42,3.26,21.79a42.76,42.76,0,0,0,11.85,15.47,51.39,51.39,0,0,0,17.19,9.15,64.22,64.22,0,0,0,19.47,3.05,53.14,53.14,0,0,0,16.86-2.5,41.23,41.23,0,0,0,12.83-6.76,31,31,0,0,0,8.27-9.8,24.32,24.32,0,0,0,2.94-11.44,20.66,20.66,0,0,0-3.49-11.88,35.64,35.64,0,0,0-8.83-8.93,67.8,67.8,0,0,0-11.65-6.65c-4.22-1.88-8.14-3.63-11.77-5.22L2506,256.91q-6.33-2.84-12.64-6.21a60.71,60.71,0,0,1-11.44-7.85,35.84,35.84,0,0,1-8.28-10.45,29.22,29.22,0,0,1-3.16-13.84,32.34,32.34,0,0,1,4.14-16.23A38.39,38.39,0,0,1,2486,189.91a53.87,53.87,0,0,1,17.1-7.85,81.07,81.07,0,0,1,21.47-2.72,76.11,76.11,0,0,1,21.68,2.83,75,75,0,0,1,16.23,6.76,62.71,62.71,0,0,1,11.11,7.95,76,76,0,0,1,6.54,6.65L2571,231q-.87-24.4-13.81-36.93t-33.8-12.53a59.07,59.07,0,0,0-16.3,2.18,38.9,38.9,0,0,0-13.15,6.43,32,32,0,0,0-8.8,10.24,28.49,28.49,0,0,0-3.26,13.83q0,12,7.06,19.07a54.27,54.27,0,0,0,17.29,11.44l29.35,13.07Q2542.29,260.62,2550.34,263.88Z"/><path class="cls-1" d="M2697.13,179.34a86.65,86.65,0,0,1,31.7,5.56,69.44,69.44,0,0,1,24.51,15.9,72.52,72.52,0,0,1,15.91,24.73,86.89,86.89,0,0,1,5.66,32,85.4,85.4,0,0,1-5.66,31.71,71.58,71.58,0,0,1-15.91,24.51,70.32,70.32,0,0,1-24.51,15.8,93.65,93.65,0,0,1-63.52,0,68.82,68.82,0,0,1-40.42-40.31,86.84,86.84,0,0,1-5.55-31.71,88.35,88.35,0,0,1,5.55-32,71.25,71.25,0,0,1,15.8-24.73,69.27,69.27,0,0,1,24.62-15.9A87.49,87.49,0,0,1,2697.13,179.34Zm0,153.61a64.29,64.29,0,0,0,26.69-5.44,59.27,59.27,0,0,0,20.7-15.37,71.5,71.5,0,0,0,13.4-23.75,93.86,93.86,0,0,0,4.79-30.83,95.63,95.63,0,0,0-4.79-31.16,72.74,72.74,0,0,0-13.4-24,58.81,58.81,0,0,0-20.7-15.47,68.35,68.35,0,0,0-53.49,0,60,60,0,0,0-20.71,15.47,70.16,70.16,0,0,0-13.4,24,97.6,97.6,0,0,0-4.68,31.16,95.79,95.79,0,0,0,4.68,30.83,69,69,0,0,0,13.4,23.75,60.52,60.52,0,0,0,20.71,15.37A64,64,0,0,0,2697.13,333Z"/><path class="cls-1" d="M2869.26,181.52a80.1,80.1,0,0,1,25.17,3.71,54.09,54.09,0,0,1,18.84,10.37A45,45,0,0,1,2925,211.76a56.81,56.81,0,0,1,0,42.58,46.14,46.14,0,0,1-11.77,16.27,53.16,53.16,0,0,1-18.84,10.48,80.1,80.1,0,0,1-25.17,3.71h-36.17V313a25,25,0,0,0,2.94,12.14q2.94,5.43,11.88,7.6V333h-41v-.21q8.94-2.17,11.88-7.63a25.27,25.27,0,0,0,2.94-12.2V201.56a24.65,24.65,0,0,0-2.94-12.09q-2.94-5.34-11.88-7.73v-.22Zm-1.09,98.7q13.08,0,22.33-3.37a39.36,39.36,0,0,0,15.15-9.48,36.76,36.76,0,0,0,8.6-14.82,70.22,70.22,0,0,0,0-38.78,36.76,36.76,0,0,0-8.6-14.82,39.6,39.6,0,0,0-15.15-9.48q-9.26-3.37-22.33-3.38h-35.08v94.13Z"/><path class="cls-1" d="M3070.37,181.52v.22q-8.94,2.4-12,7.73a23.87,23.87,0,0,0-3,12.09V333h-4.58L2978.64,204.4V312.91a25.16,25.16,0,0,0,3,12.2q3,5.44,11.92,7.63V333h-34.26v-.21q8.92-2.17,11.87-7.63a25.27,25.27,0,0,0,2.94-12.2V201.56a24.65,24.65,0,0,0-2.94-12.09q-2.94-5.34-11.87-7.73v-.22h19.39l72.12,128.77V201.56a24.85,24.85,0,0,0-2.91-12.09q-2.91-5.34-11.74-7.73v-.22Z"/><path class="cls-1" d="M3179.32,179.34a86.57,86.57,0,0,1,31.7,5.56,69.39,69.39,0,0,1,24.52,15.9,72.65,72.65,0,0,1,15.9,24.73,86.68,86.68,0,0,1,5.67,32,85.2,85.2,0,0,1-5.67,31.71,71.71,71.71,0,0,1-15.9,24.51,70.27,70.27,0,0,1-24.52,15.8,93.62,93.62,0,0,1-63.51,0,68.82,68.82,0,0,1-40.42-40.31,86.63,86.63,0,0,1-5.56-31.71,88.14,88.14,0,0,1,5.56-32,71.1,71.1,0,0,1,15.8-24.73,69.09,69.09,0,0,1,24.62-15.9A87.44,87.44,0,0,1,3179.32,179.34Zm0,153.61a64.26,64.26,0,0,0,26.69-5.44,59.27,59.27,0,0,0,20.7-15.37,71.33,71.33,0,0,0,13.4-23.75,93.6,93.6,0,0,0,4.8-30.83,95.36,95.36,0,0,0-4.8-31.16,72.56,72.56,0,0,0-13.4-24A58.81,58.81,0,0,0,3206,187a68.35,68.35,0,0,0-53.49,0,60.09,60.09,0,0,0-20.7,15.47,70,70,0,0,0-13.4,24,97.32,97.32,0,0,0-4.69,31.16,95.51,95.51,0,0,0,4.69,30.83,68.82,68.82,0,0,0,13.4,23.75,60.58,60.58,0,0,0,20.7,15.37A64.05,64.05,0,0,0,3179.32,333Z"/><path class="cls-1" d="M3407.45,333l-32-131.39a32.09,32.09,0,0,0-6-12.09q-4.24-5.34-14.05-7.73v-.22h41.18v.22q-8.28,2.4-9.91,7.73a22,22,0,0,0,.11,12.09l29.41,120.5,29.42-120.5a22.09,22.09,0,0,0,.11-12.09q-1.64-5.34-9.92-7.73v-.22H3470v.22q-9.8,2.4-14.05,7.73a32.07,32.07,0,0,0-6,12.09l-32,131.39Z"/><path class="cls-1" d="M3568.47,312.91a32.1,32.1,0,0,0,6.1,12.2q4.35,5.44,13.94,7.63V333h-41.18v-.21q8.28-2.4,9.92-7.74a22.09,22.09,0,0,0-.11-12.09l-3.27-13.51h-52.08l-3.48,13.51a22,22,0,0,0-.11,12.09q1.64,5.34,9.91,7.74V333H3473.9v-.21q9.81-2.4,14.06-7.74a32.21,32.21,0,0,0,6-12.09l27.89-113.74q1.74-13.08-15-17.43v-.22h29.64Zm-15.69-18.09-25.06-102.41-24.84,102.41Z"/><path class="cls-1" d="M3697.09,263.88a101.27,101.27,0,0,1,15.11,7.63,43.91,43.91,0,0,1,11.85,10.57,23.72,23.72,0,0,1,4.79,14.92,29.39,29.39,0,0,1-3.81,14.49,38.89,38.89,0,0,1-10.66,12.09,54.86,54.86,0,0,1-16.65,8.39,69.64,69.64,0,0,1-21.53,3.16,94.19,94.19,0,0,1-20.24-2.29,85.16,85.16,0,0,1-19.69-6.86,66,66,0,0,1-16.44-11.44,43,43,0,0,1-10.67-16l16.12-15q-1.09,12.42,3.27,21.79a42.76,42.76,0,0,0,11.85,15.47,51.29,51.29,0,0,0,17.19,9.15,64.22,64.22,0,0,0,19.47,3.05,53,53,0,0,0,16.85-2.5,41.29,41.29,0,0,0,12.84-6.76,31,31,0,0,0,8.26-9.8,24.2,24.2,0,0,0,2.94-11.44,20.65,20.65,0,0,0-3.48-11.88,35.64,35.64,0,0,0-8.83-8.93A67.52,67.52,0,0,0,3694,275c-4.21-1.88-8.13-3.63-11.76-5.22l-29.42-12.86q-6.32-2.84-12.63-6.21a60.71,60.71,0,0,1-11.44-7.85,35.84,35.84,0,0,1-8.28-10.45,29.22,29.22,0,0,1-3.16-13.84,32.34,32.34,0,0,1,4.14-16.23,38.17,38.17,0,0,1,11.33-12.42,53.87,53.87,0,0,1,17.1-7.85,81,81,0,0,1,21.46-2.72,74.77,74.77,0,0,1,37.92,9.59,62.71,62.71,0,0,1,11.11,7.95,77.52,77.52,0,0,1,6.54,6.65L3717.72,231q-.85-24.4-13.8-36.93t-33.8-12.53a59,59,0,0,0-16.3,2.18,38.72,38.72,0,0,0-13.15,6.43,32.12,32.12,0,0,0-8.81,10.24,28.49,28.49,0,0,0-3.25,13.83q0,12,7.06,19.07A54,54,0,0,0,3653,244.71l29.35,13.07Q3689,260.62,3697.09,263.88Z"/><path class="cls-1" d="M3892,223.14h-1.31q-1.09-12.42-4.47-19.72a31.33,31.33,0,0,0-8-11.12,23.43,23.43,0,0,0-9.81-5,45.37,45.37,0,0,0-10-1.2h-25.93V312.91q0,8.05,3.49,13t11.33,6.87V333h-41.18v-.21q7.84-2,11.44-6.87t3.59-13V186.09h-26.14a45.46,45.46,0,0,0-10,1.2,23.45,23.45,0,0,0-9.8,5,31.35,31.35,0,0,0-8,11.12q-3.37,7.31-4.25,19.72h-1.3l4.57-43.15a6.53,6.53,0,0,0,3.05,1.2,19.67,19.67,0,0,0,3,.33h109a17.74,17.74,0,0,0,2.94-.33,6.39,6.39,0,0,0,2.94-1.2Z"/><path class="cls-1" d="M4046.3,333h-44l-.44-.21c4.8-1.59,6.79-4.16,6-7.71s-3-7.55-6.65-12l-22.44-28.2h-31.6V313a25,25,0,0,0,2.94,12.14q3,5.43,11.88,7.6V333h-41v-.21q8.92-2.17,11.87-7.63a25.27,25.27,0,0,0,2.94-12.2V201.56a24.65,24.65,0,0,0-2.94-12.09q-2.94-5.34-11.87-7.73v-.22h62.31a80,80,0,0,1,25.17,3.71,54.23,54.23,0,0,1,18.85,10.37,45.12,45.12,0,0,1,11.76,16.16,52.75,52.75,0,0,1,4.14,21.29q0,21.63-13.29,35.27t-37.26,16L4015.36,313a63.38,63.38,0,0,0,12.42,12,46.88,46.88,0,0,0,18.09,7.71Zm-64.06-52.73q13.08,0,22.34-3.37a39.32,39.32,0,0,0,15.14-9.48,36.89,36.89,0,0,0,8.61-14.82,70.47,70.47,0,0,0,0-38.78,36.89,36.89,0,0,0-8.61-14.82,39.56,39.56,0,0,0-15.14-9.48q-9.27-3.37-22.34-3.38h-35.08v94.13Z"/><path class="cls-1" d="M4164.62,312.91a32.1,32.1,0,0,0,6.1,12.2q4.35,5.44,13.94,7.63V333h-41.18v-.21q8.28-2.4,9.92-7.74a22.09,22.09,0,0,0-.11-12.09L4150,299.4h-52.08l-3.48,13.51a22,22,0,0,0-.11,12.09q1.64,5.34,9.91,7.74V333h-34.21v-.21q9.81-2.4,14.06-7.74a32.21,32.21,0,0,0,6-12.09L4118,199.17q1.74-13.08-15-17.43v-.22h29.64Zm-15.69-18.09-25.06-102.41L4099,294.82Z"/><path class="cls-1" d="M2665.15,509.46H2633v26.46h35.19l-.72,4.5h-39.33v-63h38.61v4.5H2633v23h32.13Z"/><path class="cls-1" d="M2701.42,523.5c1.89,8.37,7.47,13.32,17.82,13.32,11.51,0,15.92-5.76,15.92-12.6,0-7.11-3.15-11.52-17-14.94-13.32-3.33-19.08-7.65-19.08-16.74,0-8.28,6-16,19.53-16,13.85,0,19.7,8.46,20.51,16.11h-5c-1.43-6.75-5.84-11.61-15.74-11.61-9.09,0-14,4.23-14,11.25s4.14,9.63,15.75,12.51c17.72,4.41,20.33,11.52,20.33,19.08,0,9.27-6.75,17.28-21.32,17.28-15.75,0-21.51-9.18-22.68-17.64Z"/><path class="cls-1" d="M2786.46,481.92h-21.14v-4.5h47.33v4.5h-21.24v58.5h-4.95Z"/><path class="cls-1" d="M2841.82,477.42h20.87c17.28,0,29.25,12.06,29.25,31s-11.7,32-29.34,32h-20.78Zm4.85,58.5h15.21c16.65,0,24.84-11.7,24.84-27.27,0-13.86-7.38-26.73-24.84-26.73h-15.21Z"/><path class="cls-1" d="M2964.21,540.42v-.27c0-7.38,6.3-16.56,18.09-25.74,10.26-8,12.87-10.44,12.87-17.91,0-6.48-3.6-12.06-12.15-12.06-8.1,0-12.33,3.87-13.86,12.51h-4.59c1.17-9.9,7.38-16.83,18.45-16.83,12,0,17.1,8.19,17.1,16.11,0,9.18-3.87,12.24-14.85,21.24-8.73,7.11-14,12.78-15.84,18.54h33.12l-.81,4.41Z"/><path class="cls-1" d="M3069.42,510.36c0,13.59-3.51,31.14-19.35,31.14-15.39,0-19.26-16.11-19.26-30.69s4.14-30.69,19.53-30.69S3069.42,496.32,3069.42,510.36Zm-33.57.54c0,11.52,2.43,26.28,14.22,26.28,12.06,0,14.4-14.13,14.4-26.82,0-11.34-2.34-25.92-14-25.92C3038.19,484.44,3035.85,497.76,3035.85,510.9Z"/><path class="cls-1" d="M3137.64,510.36c0,13.59-3.51,31.14-19.35,31.14-15.39,0-19.26-16.11-19.26-30.69s4.14-30.69,19.53-30.69S3137.64,496.32,3137.64,510.36Zm-33.57.54c0,11.52,2.43,26.28,14.22,26.28,12.06,0,14.4-14.13,14.4-26.82,0-11.34-2.34-25.92-14-25.92C3106.41,484.44,3104.07,497.76,3104.07,510.9Z"/><path class="cls-1" d="M3199.11,493.08c-1.44-5.22-5-8.73-11.61-8.73-11.34,0-15.39,10.62-15.66,26.19,2.34-5,6.93-10.08,16.11-10.08,11.88,0,17.91,8.55,17.91,19.8,0,11-6,21.24-18.81,21.24-15.75,0-19.89-13.23-19.89-29.88,0-16.92,5.22-31.5,20.52-31.5,11.52,0,15.3,7.74,16.2,13Zm1.8,27.45c0-7.29-2.88-15.75-13.32-15.75-8.37,0-14.76,5.58-14.76,15.93,0,4.95,2.61,16.56,14.31,16.56C3197.22,537.27,3200.91,528.9,3200.91,520.53Z"/></g></g></svg>